<svg width="431" height="48" viewBox="0 0 431 48" fill="none" xmlns="http://www.w3.org/2000/svg">
<circle cx="23.8938" cy="23.8938" r="23.8938" fill="#418CFE"/>
<path d="M24.4354 12.7C23.598 12.7 23.281 13.3686 23.3457 14.6664C23.3883 15.5211 23.6769 17.9039 22.4689 19.1119C21.3429 20.2378 21.0149 20.1385 19.7329 21.5908C18.4508 23.0432 17.3816 22.7452 15.8867 22.6159C14.0069 22.455 14.6472 32.8835 15.9718 32.7037C16.9117 32.576 19.05 32.3189 19.3907 32.3189C19.7329 32.3189 22.0778 34.1356 24.1358 34.1561C27.4694 34.1908 29.3082 33.601 29.3082 33.601L30.2843 31.3854L30.6108 24.6281L29.0511 21.3764C29.0511 21.3764 26.9569 21.7186 26.3577 20.7787C25.76 19.8389 26.8276 18.6845 26.8276 15.9911C26.8276 13.2976 24.8627 12.7 24.4354 12.7Z" fill="url(#paint0_linear_7_790)"/>
<path d="M29.4248 33.5803L29.2986 33.1182C28.9233 33.0788 28.4392 33.2491 27.78 33.2444C24.6277 33.2207 21.6141 32.3156 20.321 31.2921C19.4742 30.6219 19.1036 29.7293 18.5044 29.9864C17.7663 30.3034 15.6721 30.7954 14.901 29.8208C15.117 31.4892 15.5018 32.7697 15.9718 32.7051C16.9116 32.5773 19.05 32.3203 19.3906 32.3203C19.7328 32.3203 22.0115 34.0896 24.1357 34.1574C26.8828 34.2473 29.3223 33.7742 29.3223 33.7742L29.4248 33.5803Z" fill="url(#paint1_linear_7_790)"/>
<path d="M26.3592 20.7787C25.7615 19.8389 26.8292 18.6845 26.8292 15.9911C26.8292 13.2976 24.8627 12.7 24.4353 12.7C24.3234 12.7 24.2224 12.7126 24.1326 12.7362C25.8767 12.845 26.9269 15.0449 26.3245 17.3126C25.8372 19.1529 25.5944 20.6274 26.3908 21.4931C26.9064 22.0529 27.9299 21.9583 29.0511 21.3764C29.0511 21.3764 26.9569 21.7186 26.3592 20.7787Z" fill="url(#paint2_linear_7_790)"/>
<path d="M26.4759 21.7378C25.4493 22.08 22.86 22.8842 20.8967 24.6631C15.9245 29.1732 24.4148 29.7377 26.1669 33.5934C26.5027 34.3314 28.4613 29.7267 28.4613 29.7267L29.0953 28.6607L27.2644 23.7862L26.4759 21.7378Z" fill="url(#paint3_linear_7_790)"/>
<path d="M26.6273 22.1287C25.6007 22.4709 21.4108 25.1549 21.4108 26.4811C21.4108 30.3068 24.3124 28.4192 25.8814 32.9324C26.0991 33.5569 26.8655 34.0836 26.8655 34.0836C27.501 33.5648 28.4629 29.7296 28.4629 29.7296L29.0969 28.6636L27.266 23.7892L26.6273 22.1287Z" fill="url(#paint4_linear_7_790)"/>
<path d="M28.9944 33.8536L30.9577 31.6096L31.3898 22.233L26.476 21.7378C25.3485 22.3449 25.2176 23.176 25.6371 24.5085C25.8137 25.0699 25.0961 25.2307 25.0504 26.8645C25.0189 27.9968 25.76 28.0031 25.76 28.339C25.76 28.6748 25.391 28.6449 25.268 29.621C25.093 31.0166 26.2615 31.0434 26.2615 31.3415C26.2615 31.6395 25.6118 31.8177 25.6528 32.9547C25.7033 34.3977 23.024 34.1059 21.2137 32.7923C20.4693 32.253 19.8212 32.1978 19.3134 32.3192C19.345 32.3176 19.3718 32.3161 19.3923 32.3161C19.7345 32.3161 22.0305 34.1532 24.1373 34.1532C26.599 34.1564 28.3021 34.0129 28.9944 33.8536Z" fill="url(#paint5_linear_7_790)"/>
<path d="M29.4454 22.3557C27.9283 22.3557 27.0941 23.838 27.6713 24.9782C28.2484 26.1183 26.6021 27.6259 26.774 28.3671C26.9443 29.1098 27.2439 30.988 27.4789 31.2987C27.7139 31.6093 27.0941 32.3142 27.0941 32.3142L29.018 32.5492L30.8126 31.7576L30.7479 26.3296L30.9403 22.9313L29.4454 22.3557Z" fill="url(#paint6_linear_7_790)"/>
<path d="M24.4354 12.7C23.5981 12.7 23.2811 13.3686 23.3457 14.6664C23.3883 15.5211 23.6769 17.9039 22.4689 19.1119C21.343 20.2378 21.015 20.1369 19.7329 21.5908C18.9003 22.5354 18.1576 22.7389 17.3296 22.731C16.8834 22.7263 16.4118 22.6616 15.8867 22.6159C15.8867 22.9407 15.9814 22.9328 17.2208 23.2751C17.3627 23.3145 17.4968 23.3413 17.6277 23.3571C17.6908 23.5542 17.7255 23.7529 17.7176 23.95C17.6718 25.0302 17.91 26.3596 18.0913 24.9766C18.1623 24.4404 18.3815 23.838 18.6953 23.2309C19.1652 23.0432 19.5453 22.6916 19.8828 22.2816C20.512 21.5167 21.0576 20.8387 22.6392 19.8136C24.2209 18.787 24.0175 15.9674 23.8898 15.026C23.7621 14.0845 23.8472 12.7 24.4354 12.7Z" fill="url(#paint7_radial_7_790)"/>
<path d="M30.595 21.3339C28.8004 21.2661 25.5755 21.1636 25.5046 23.0433C25.4525 24.4058 26.4192 24.8537 27.9141 24.9104C29.4091 24.9672 30.1566 24.9956 30.7764 25.0192C31.3961 25.0429 33.3436 25.0303 33.3625 23.3855C33.3862 21.3292 30.595 21.3339 30.595 21.3339Z" fill="url(#paint8_linear_7_790)"/>
<path d="M27.6445 28.1288C27.1635 28.1146 25.7363 28.4757 25.6023 29.3825C25.4967 30.0953 25.8609 31.0178 27.1036 31.2354C28.6774 31.5114 31.3015 31.6549 32.2807 31.289C32.7191 31.125 33.1008 30.6677 33.1197 29.9723C33.1402 29.2768 32.6245 28.3417 31.5017 28.3086C30.3789 28.2755 29.7954 28.2928 29.1568 28.2187C28.3904 28.1256 28.0293 28.1399 27.6445 28.1288Z" fill="url(#paint9_linear_7_790)"/>
<path d="M27.1446 31.2988C26.5989 31.2988 25.9271 31.7798 25.9271 32.5809C25.9271 33.382 26.1353 33.9749 27.3054 34.2005C28.4755 34.4244 30.3505 34.232 31.0554 34.008C31.6042 33.833 31.8092 33.3189 31.8092 32.4689C31.8092 31.6189 31.2809 31.4707 30.7037 31.4707C30.1266 31.4707 29.4264 31.5764 29.0258 31.5543C27.9078 31.496 27.6886 31.2988 27.1446 31.2988Z" fill="url(#paint10_linear_7_790)"/>
<path d="M30.442 21.7141C28.8761 21.6542 26.0597 21.5643 26.0029 23.0498C25.9619 24.1268 26.8071 24.4832 28.1128 24.5337C29.4186 24.5842 32.8532 24.6457 32.8642 23.3447C32.8784 21.7188 30.442 21.7141 30.442 21.7141Z" fill="url(#paint11_linear_7_790)"/>
<path d="M27.7895 28.5107C27.3716 28.4981 26.1983 28.5991 26.0864 29.4648C26.0107 30.0514 26.315 30.8036 27.3968 30.985C28.7688 31.2136 31.0522 31.3351 31.9054 31.0354C32.2854 30.9014 32.6182 30.5277 32.6339 29.9584C32.6497 29.3891 32.1261 28.6905 31.15 28.6637C30.1738 28.6353 29.655 28.7252 29.0968 28.6637C28.4282 28.588 28.1238 28.5218 27.7895 28.5107Z" fill="url(#paint12_linear_7_790)"/>
<path d="M27.3764 31.5903C26.9049 31.5903 26.323 31.9783 26.323 32.6233C26.323 33.2682 26.5027 33.746 27.5152 33.9274C28.5276 34.1087 30.1503 33.9526 30.759 33.7728C31.2337 33.6325 31.4103 33.2178 31.4103 32.5333C31.4103 31.849 30.953 31.7291 30.4531 31.7291C29.9531 31.7291 29.3476 31.8143 29.0022 31.7969C28.0371 31.7496 27.8479 31.5903 27.3764 31.5903Z" fill="url(#paint13_linear_7_790)"/>
<path d="M17.1356 32.5537C15.8741 32.0113 14.6945 24.5838 17.0205 22.7182C16.6657 22.6961 16.292 22.6488 15.8867 22.6141C14.0069 22.4533 14.6472 32.8817 15.9718 32.702C16.2714 32.6625 16.6909 32.6089 17.1356 32.5537Z" fill="url(#paint14_linear_7_790)"/>
<path d="M27.0893 23.0498C27.1287 22.0264 27.944 21.5359 28.9753 21.3088C27.329 21.3467 25.5565 21.6542 25.5029 23.0419C25.4508 24.4044 26.4175 24.8523 27.9125 24.9091C28.0765 24.9154 28.2326 24.9216 28.3792 24.9264C27.5403 24.6819 27.0483 24.13 27.0893 23.0498Z" fill="url(#paint15_linear_7_790)"/>
<path d="M27.2298 21.4949C26.2725 21.7046 25.5377 22.1572 25.503 23.0435C25.4604 24.1773 26.1211 24.6756 27.2045 24.8459C25.0094 23.9691 25.7963 21.8087 27.2298 21.4949Z" fill="url(#paint16_linear_7_790)"/>
<path opacity="0.65" d="M24.6798 32.264C24.4259 32.8459 23.2211 32.8822 21.9863 32.346C20.7531 31.8098 19.9583 30.9015 20.2107 30.3196C20.4646 29.7377 21.6693 29.7014 22.9041 30.2376C24.1373 30.7754 24.9321 31.6821 24.6798 32.264Z" fill="url(#paint17_radial_7_790)"/>
<path opacity="0.75" d="M31.9385 23.3241C31.9259 24.111 30.874 24.4832 29.7244 24.5526C28.783 24.6093 27.739 23.9439 27.7658 23.1759C27.7927 22.4079 27.9299 21.7267 29.8837 21.7945C31.038 21.8355 31.9511 22.5562 31.9385 23.3241Z" fill="url(#paint18_radial_7_790)"/>
<path opacity="0.75" d="M32.1483 30.2375C32.142 31.3256 30.9435 31.1174 29.7939 31.1931C28.3352 31.2893 27.3685 30.8352 27.3669 30.0672C27.3669 29.2992 27.9205 28.7378 29.8775 28.7346C31.0302 28.7331 32.1562 28.8387 32.1483 30.2375Z" fill="url(#paint19_radial_7_790)"/>
<path opacity="0.75" d="M31.0933 32.9827C31.0869 33.9115 29.9988 34.0377 28.9691 34.0377C27.9393 34.0377 26.8197 33.4921 26.8181 32.8376C26.8181 32.1816 27.3133 31.7054 29.0621 31.7022C30.0935 31.6991 31.1012 31.7905 31.0933 32.9827Z" fill="url(#paint20_radial_7_790)"/>
<path d="M26.9396 29.6019C27.1036 28.3624 28.0545 28.4349 29.1442 28.3056C27.8889 28.2126 27.3622 28.1984 27.3622 28.1984C27.2455 28.1873 27.1146 28.1857 26.9774 28.2C26.569 28.2898 26.1069 28.4759 25.8326 28.8228C25.7395 28.9553 25.6638 29.1114 25.6134 29.2975C25.6086 29.3243 25.6039 29.3511 25.5992 29.3795C25.5109 30.0955 25.8578 31.0148 27.1004 31.2325C27.2802 31.264 27.4726 31.294 27.676 31.3208C27.7738 31.3334 27.8795 31.346 27.993 31.3602C28.023 31.3633 28.0545 31.3681 28.0845 31.3712C27.4016 31.0495 26.8197 30.5134 26.9396 29.6019Z" fill="url(#paint21_linear_7_790)"/>
<path d="M27.2439 28.1906C27.1588 28.1875 27.0705 28.1907 26.9774 28.2001C26.5658 28.2916 26.1006 28.4792 25.8262 28.8324C25.7364 28.9634 25.6638 29.1179 25.6149 29.2977C25.6102 29.3245 25.607 29.3513 25.6007 29.3797C25.4746 30.0846 25.8247 30.9156 26.9096 31.19C25.0598 30.1713 25.8499 28.1922 27.2439 28.1906Z" fill="url(#paint22_linear_7_790)"/>
<path d="M28.3225 31.4881C27.7753 31.4076 27.5498 31.2988 27.1446 31.2988C26.5989 31.2988 25.9271 31.7798 25.9271 32.5809C25.9271 32.8726 25.9555 33.136 26.0454 33.3631C26.1369 33.5523 26.2709 33.7289 26.4554 33.8772C26.6573 34.0175 26.9317 34.1279 27.3054 34.1989C27.5561 34.2462 27.8384 34.2761 28.1349 34.2887C27.5624 33.956 26.5942 33.7778 26.7976 32.6661C27.0199 31.4392 27.7532 31.6048 28.3225 31.4881Z" fill="url(#paint23_linear_7_790)"/>
<path d="M27.1193 31.2988C26.5784 31.313 25.9255 31.7908 25.9255 32.5809C25.9255 33.3158 26.1006 33.874 27.031 34.1358C25.5802 33.2022 26.0454 31.63 27.1193 31.2988Z" fill="url(#paint24_linear_7_790)"/>
<path d="M33.361 23.3857C33.3626 23.2012 33.3421 23.0341 33.3027 22.8811C33.4462 23.5229 32.8753 24.1616 31.3583 24.4722C30.3522 24.6772 27.6824 24.9343 25.8342 24.201C26.2332 24.6836 26.9664 24.876 27.9126 24.9122C29.4076 24.969 30.155 24.9974 30.7748 25.021C31.3945 25.0431 33.3421 25.0321 33.361 23.3857Z" fill="url(#paint25_linear_7_790)"/>
<path d="M33.1212 29.9266C33.1196 29.2375 32.6023 28.3386 31.5032 28.3071C30.382 28.274 29.7969 28.2913 29.1583 28.2172C28.3903 28.1273 28.0292 28.1399 27.6444 28.1289C27.3542 28.121 26.6367 28.2077 26.1494 28.5105C26.6982 28.7013 27.5907 28.9868 28.8476 28.9063C31.8596 28.7124 32.7159 29.0767 33.1212 29.9266Z" fill="url(#paint26_linear_7_790)"/>
<path d="M26.9995 25.019C26.3592 25.0064 25.3405 25.3833 25.3137 26.7143C25.2869 28.0452 26.4507 28.3622 26.9632 28.3717C27.4757 28.3811 29.2687 28.5041 31.4812 28.5483C33.6937 28.5924 33.9886 27.405 34.0012 26.7837C34.0138 26.1624 33.6196 25.0364 32.2886 25.0096C28.444 24.9323 26.9995 25.019 26.9995 25.019Z" fill="url(#paint27_linear_7_790)"/>
<path d="M27.3433 25.4041C26.7866 25.3931 25.902 25.6817 25.8815 26.7083C25.861 27.7349 26.8734 27.9825 27.3197 27.9904C27.7659 27.9998 29.1584 28.2158 31.2463 28.1354C33.1686 28.0613 33.4241 27.2586 33.4335 26.7792C33.443 26.2998 33.3768 25.4309 32.2208 25.4073C28.8777 25.3426 27.3433 25.4041 27.3433 25.4041Z" fill="url(#paint28_linear_7_790)"/>
<path d="M26.6888 26.5848C26.7535 25.2192 27.706 25.2145 28.783 24.9795C27.5246 24.9874 26.9979 25.0189 26.9979 25.0189C26.3577 25.0063 25.339 25.3832 25.3122 26.7141C25.2853 28.0451 26.4491 28.3621 26.9617 28.3715C27.1462 28.3747 27.4978 28.3936 27.9756 28.4173C27.2676 28.1239 26.6415 27.5893 26.6888 26.5848Z" fill="url(#paint29_linear_7_790)"/>
<path opacity="0.75" d="M32.8753 26.7271C32.9195 27.8152 31.7115 28.0202 30.5603 28.0754C29.4091 28.1306 28.1286 27.5487 28.0924 26.7807C28.0561 26.0127 28.5828 25.4277 30.5382 25.3331C31.6878 25.2763 32.8185 25.3299 32.8753 26.7271Z" fill="url(#paint30_radial_7_790)"/>
<path d="M26.8797 25.0208C26.2394 25.0554 25.339 25.4639 25.3137 26.7128C25.2885 27.9776 26.3388 28.3261 26.8828 28.3671C24.776 27.5171 25.4667 25.1453 26.8797 25.0208Z" fill="url(#paint31_linear_7_790)"/>
<path d="M33.998 26.6499C33.7204 28.618 28.5149 28.2584 25.7031 27.8358C26.0832 28.2426 26.6478 28.3656 26.9631 28.3719C27.4756 28.383 29.2686 28.5044 31.4811 28.5485C33.692 28.5927 33.9885 27.4053 34.0011 26.784C34.0027 26.7414 34.0011 26.6956 33.998 26.6499Z" fill="url(#paint32_linear_7_790)"/>
<path d="M31.3913 31.0322C30.3837 31.0764 27.7155 31.4075 25.7711 30.3667C25.9871 30.7705 26.4082 31.1126 27.1036 31.2341C28.6774 31.51 31.3015 31.6536 32.2808 31.2877C32.7191 31.1237 33.1008 30.6664 33.1197 29.9709C33.0566 30.5749 32.481 30.9849 31.3913 31.0322Z" fill="url(#paint33_linear_7_790)"/>
<path d="M31.7304 33.2192C31.0696 33.7223 29.9279 34.0187 28.2815 33.7396C27.2644 33.5677 26.5674 33.5094 26.1085 33.4968C26.2914 33.8279 26.6463 34.0723 27.3054 34.1985C28.4755 34.4224 30.3505 34.2301 31.0554 34.0061C31.4166 33.891 31.6279 33.6276 31.7304 33.2192Z" fill="url(#paint34_linear_7_790)"/>
<path d="M26.1416 31.8601C27.3622 31.4154 27.9598 32.0746 29.2672 32.0746C30.6233 32.0746 31.2699 31.5274 31.7509 32.0478C31.5994 31.5668 31.1658 31.4706 30.7022 31.4706C30.125 31.4706 29.4248 31.5763 29.0243 31.5542C27.9078 31.4958 27.6886 31.2971 27.143 31.2971C26.7913 31.2987 26.3845 31.5006 26.1416 31.8601Z" fill="url(#paint35_linear_7_790)"/>
<path d="M15.9718 32.7039C16.9117 32.5761 19.0485 32.3191 19.3907 32.3191C16.2904 30.1035 17.6686 25.3915 18.8135 23.0071C18.9743 22.6728 19.0737 22.3984 19.1257 22.165C18.0944 22.952 17.1404 22.7249 15.8851 22.616C14.0069 22.4552 14.6487 32.8836 15.9718 32.7039Z" fill="url(#paint36_linear_7_790)"/>
<path d="M17.9272 30.5624C17.6071 30.135 17.8846 31.0544 18.1417 31.7167C18.3593 32.2813 16.6877 31.9469 15.4072 32.0857C15.5744 32.4989 15.7652 32.7323 15.9733 32.7039C16.9132 32.5761 19.05 32.3191 19.3922 32.3191C18.9097 31.9091 18.2473 30.9897 17.9272 30.5624Z" fill="url(#paint37_radial_7_790)"/>
<path d="M19.3922 32.3192C19.1257 32.0937 18.8056 31.712 18.517 31.343C18.517 31.343 16.9605 32.1394 15.2921 31.764C15.4845 32.3728 15.7148 32.7386 15.9718 32.7024C16.9132 32.5746 19.05 32.3192 19.3922 32.3192Z" fill="url(#paint38_linear_7_790)"/>
<path opacity="0.75" d="M25.432 17.0683C24.8233 17.1992 24.3297 16.3587 24.0506 15.3762C23.8219 14.5736 24.1326 13.5517 24.7303 13.435C25.3279 13.3199 25.8814 13.3151 26.211 15.0167C26.405 16.0212 26.0281 16.9406 25.432 17.0683Z" fill="url(#paint39_radial_7_790)"/>
<path d="M27.1194 31.299C26.7835 31.3337 26.4807 31.5135 26.2726 31.761C26.0613 32.0102 25.9619 32.3351 25.984 32.6631C25.9856 32.9911 26.036 33.3285 26.2221 33.5951C26.4066 33.8631 26.7173 34.024 27.0311 34.1359C26.7078 34.0634 26.3703 33.9294 26.1527 33.6455C25.9335 33.3648 25.8815 33.0006 25.872 32.6646C25.8578 32.3224 25.9666 31.9566 26.2095 31.7043C26.4429 31.4488 26.7819 31.2927 27.1194 31.299Z" fill="#804B24"/>
<path d="M26.5816 28.3167C26.3608 28.4128 26.1574 28.5437 25.9886 28.7062C25.8167 28.867 25.7253 29.0878 25.6638 29.3117V29.3086C25.5833 29.717 25.6511 30.1507 25.8908 30.4913C26.1258 30.835 26.5043 31.0606 26.9096 31.1914C26.4932 31.111 26.0738 30.9092 25.812 30.548C25.6811 30.3698 25.5912 30.1633 25.5486 29.9457C25.5045 29.728 25.525 29.5009 25.566 29.2896L25.5676 29.2865C25.6338 29.0515 25.7505 28.8166 25.9429 28.6573C26.1274 28.4917 26.3545 28.3908 26.5816 28.3167Z" fill="#804B24"/>
<path d="M26.8797 25.0208C26.4839 25.0665 26.1007 25.2305 25.8263 25.508C25.5519 25.7856 25.4037 26.1672 25.38 26.5567C25.3406 26.9446 25.4037 27.3483 25.6244 27.67C25.8436 27.9933 26.2 28.2094 26.5832 28.3213C26.1921 28.2504 25.8026 28.0564 25.555 27.7205C25.3027 27.3878 25.2349 26.9494 25.2696 26.5473C25.3027 26.142 25.462 25.7288 25.7679 25.4465C26.0691 25.1611 26.4807 25.0239 26.8797 25.0208Z" fill="#804B24"/>
<path d="M27.2313 21.4944C26.8071 21.6095 26.3861 21.7704 26.0518 22.0447C25.7143 22.3176 25.5329 22.7402 25.5613 23.1723C25.555 23.6012 25.6954 24.0396 26.0234 24.325C26.3451 24.6136 26.7787 24.7524 27.2077 24.8439C26.7724 24.7934 26.3214 24.683 25.9666 24.3897C25.6039 24.0995 25.4509 23.6185 25.4494 23.1739C25.4257 22.7213 25.6291 22.2482 25.9981 21.9769C26.3593 21.701 26.7976 21.5701 27.2313 21.4944Z" fill="#804B24"/>
<path d="M25.7711 30.3667C26.0628 30.8713 26.6226 31.1331 27.1777 31.2088C27.7407 31.2955 28.31 31.3554 28.8777 31.3917C29.4454 31.4406 30.0162 31.469 30.5871 31.4674C30.8725 31.4643 31.158 31.4564 31.4402 31.428C31.7241 31.4059 32.0095 31.376 32.2823 31.2861C31.743 31.4879 31.158 31.5211 30.5887 31.54C30.0162 31.5542 29.4422 31.5384 28.8698 31.5005C28.2989 31.4517 27.7296 31.3791 27.1651 31.2798C26.8812 31.2325 26.5974 31.1457 26.3498 30.9943C26.1022 30.8429 25.8988 30.6222 25.7711 30.3667Z" fill="#804B24"/>
<path d="M25.7033 27.8342C25.9209 28.0518 26.2032 28.1954 26.4965 28.2679C26.7883 28.3546 27.0958 28.3357 27.4048 28.3499L29.2483 28.4035L31.0918 28.495C31.7037 28.5328 32.325 28.5407 32.9116 28.3404C32.3408 28.5833 31.6989 28.6038 31.0902 28.5707L29.2468 28.5171L27.4033 28.4256C27.1005 28.4051 26.782 28.4193 26.4823 28.3215C26.1859 28.2285 25.9083 28.0645 25.7033 27.8342Z" fill="#804B24"/>
<path d="M32.2902 25.0098C31.8486 25.0113 31.4087 25.024 30.9671 25.0192L29.644 25.0224L28.3226 25.0413C27.8826 25.0444 27.4411 25.046 27.0026 25.0634H26.9995C26.5658 25.0555 26.1164 25.2037 25.8041 25.5144C25.4856 25.8219 25.3358 26.2682 25.3153 26.7145C25.3184 26.4905 25.3421 26.2666 25.4115 26.0506C25.4809 25.8345 25.5991 25.6342 25.76 25.4718C26.0817 25.1422 26.5437 24.9782 27.0011 24.9766H26.9979C27.881 24.923 28.7625 24.923 29.6456 24.9372C30.5272 24.9451 31.4087 24.9609 32.2902 25.0098Z" fill="#804B24"/>
<circle cx="87.6814" cy="23.8938" r="23.8938" fill="#418CFE"/>
<path d="M93.148 15.1787C91.2194 15.1787 89.5158 16.1494 88.5 17.628C87.4844 16.1494 85.7808 15.1787 83.8522 15.1787C80.7408 15.1787 78.2144 17.7051 78.2144 20.8166C78.2144 27.6888 88.5 33.8666 88.5 33.8666C88.5 33.8666 98.7858 27.6888 98.7858 20.8166C98.7858 17.7051 96.2594 15.1787 93.148 15.1787Z" fill="url(#paint40_radial_7_790)"/>
<path opacity="0.5" d="M95.4813 15.6802C98.5671 20.598 95.7257 27.0523 92.3121 28.8845C88.5449 30.9095 85.9671 29.958 80.6313 26.9302C83.6721 30.9609 88.4999 33.8602 88.4999 33.8602C88.4999 33.8602 98.7857 27.6823 98.7857 20.8102C98.7857 18.5345 97.4292 16.5673 95.4813 15.6802Z" fill="url(#paint41_radial_7_790)"/>
<path opacity="0.5" d="M93.148 15.1787C91.2194 15.1787 89.5158 16.1494 88.5 17.628C87.4844 16.1494 85.7808 15.1787 83.8522 15.1787C80.7408 15.1787 78.2144 17.7051 78.2144 20.8166C78.2144 27.6888 88.5 33.8666 88.5 33.8666C88.5 33.8666 98.7858 27.6888 98.7858 20.8166C98.7858 17.7051 96.2594 15.1787 93.148 15.1787Z" fill="url(#paint42_radial_7_790)"/>
<path opacity="0.5" d="M93.148 15.1787C91.2194 15.1787 89.5158 16.1494 88.5 17.628C87.4844 16.1494 85.7808 15.1787 83.8522 15.1787C80.7408 15.1787 78.2144 17.7051 78.2144 20.8166C78.2144 27.6888 88.5 33.8666 88.5 33.8666C88.5 33.8666 98.7858 27.6888 98.7858 20.8166C98.7858 17.7051 96.2594 15.1787 93.148 15.1787Z" fill="url(#paint43_radial_7_790)"/>
<path opacity="0.24" d="M87.0922 17.4674C87.6579 18.7982 86.4043 20.6046 84.2893 21.4982C82.1743 22.3917 80.0079 22.0446 79.4422 20.7203C78.8765 19.396 80.13 17.5832 82.245 16.6896C84.36 15.796 86.5264 16.1367 87.0922 17.4674Z" fill="url(#paint44_radial_7_790)"/>
<path opacity="0.24" d="M93.9834 16.3876C94.787 17.2747 94.292 19.0297 92.8842 20.3026C91.4763 21.5754 89.6827 21.8904 88.8792 21.0033C88.0756 20.1161 88.5706 18.3611 89.9784 17.0883C91.3863 15.8154 93.1799 15.5004 93.9834 16.3876Z" fill="url(#paint45_radial_7_790)"/>
<path opacity="0.32" d="M93.2507 16.6766C96.0793 17.6409 98.7793 21.8194 94.2151 27.0266C91.4829 30.1444 88.5001 31.7194 84.7072 31.1022C86.7579 32.8122 88.5065 33.8666 88.5065 33.8666C88.5065 33.8666 98.7923 27.6888 98.7923 20.8166C98.7857 17.7051 96.2593 15.1787 93.1479 15.1787C91.2193 15.1787 89.5157 16.1494 88.5001 17.628C88.5001 17.628 91.1807 15.9694 93.2507 16.6766Z" fill="url(#paint46_linear_7_790)"/>
<path d="M151.918 42.4802C162.017 42.4802 170.204 34.2933 170.204 24.1944C170.204 14.0955 162.017 5.90869 151.918 5.90869C141.819 5.90869 133.632 14.0955 133.632 24.1944C133.632 34.2933 141.819 42.4802 151.918 42.4802Z" fill="url(#paint47_radial_7_790)"/>
<path opacity="0.5" d="M151.918 42.4802C162.017 42.4802 170.204 34.2933 170.204 24.1944C170.204 14.0955 162.017 5.90869 151.918 5.90869C141.819 5.90869 133.632 14.0955 133.632 24.1944C133.632 34.2933 141.819 42.4802 151.918 42.4802Z" fill="url(#paint48_radial_7_790)"/>
<path opacity="0.5" d="M151.918 42.4802C162.017 42.4802 170.204 34.2933 170.204 24.1944C170.204 14.0955 162.017 5.90869 151.918 5.90869C141.819 5.90869 133.632 14.0955 133.632 24.1944C133.632 34.2933 141.819 42.4802 151.918 42.4802Z" fill="url(#paint49_radial_7_790)"/>
<path opacity="0.5" d="M151.918 42.4802C162.017 42.4802 170.204 34.2933 170.204 24.1944C170.204 14.0955 162.017 5.90869 151.918 5.90869C141.819 5.90869 133.632 14.0955 133.632 24.1944C133.632 34.2933 141.819 42.4802 151.918 42.4802Z" fill="url(#paint50_radial_7_790)"/>
<path d="M151.918 36.3545C146.649 36.3545 144.969 30.7088 146.569 31.5887C148.718 32.7773 150.089 32.8916 151.918 32.8916C153.747 32.8916 155.107 32.7773 157.267 31.5887C158.866 30.7088 157.186 36.3545 151.918 36.3545Z" fill="#643800"/>
<path d="M157.267 31.5886C155.118 32.7772 153.747 32.8915 151.918 32.8915C150.089 32.8915 148.73 32.7772 146.57 31.5886C146.009 31.28 145.85 31.7601 146.101 32.5258C146.101 32.5144 146.181 31.6915 146.935 32.2629C146.935 32.2629 149.712 33.9315 151.907 33.9315C154.101 33.9315 156.878 32.2629 156.878 32.2629C157.632 31.7029 157.712 32.5144 157.712 32.5258C157.987 31.7715 157.827 31.28 157.267 31.5886Z" fill="url(#paint51_linear_7_790)"/>
<path d="M147.929 17.5316C148.032 16.8002 147.301 16.2402 145.952 16.0688C144.798 15.9202 142.204 16.2059 140.158 18.2059C139.781 18.5716 140.249 18.8688 140.592 18.6402C141.781 17.8745 144.798 17.0973 146.992 17.6345C147.884 17.8516 147.929 17.5316 147.929 17.5316Z" fill="url(#paint52_linear_7_790)"/>
<path d="M155.907 17.5316C155.804 16.8002 156.535 16.2402 157.884 16.0688C159.038 15.9202 161.632 16.2059 163.678 18.2059C164.055 18.5716 163.587 18.8688 163.244 18.6402C162.055 17.8745 159.038 17.0973 156.844 17.6345C155.952 17.8516 155.907 17.5316 155.907 17.5316Z" fill="url(#paint53_linear_7_790)"/>
<path d="M159.495 21.9772C159.495 21.9772 162.512 22.5029 163.187 24.8572C163.232 25.0058 163.244 25.1658 163.232 25.3143C163.209 25.6229 162.901 25.92 162.387 25.5886C159.187 23.52 157.209 24.24 155.735 24.7429C155.164 24.9372 154.707 24.3315 154.912 23.8515C154.969 23.7143 155.015 23.5658 155.107 23.4401C156.478 21.4401 159.495 21.9772 159.495 21.9772Z" fill="url(#paint54_radial_7_790)"/>
<path d="M159.37 22.6972C159.37 22.6972 161.827 23.1201 163.221 25.1315C163.21 25.0401 163.198 24.9486 163.175 24.8572C162.501 22.5029 159.484 21.9772 159.484 21.9772C159.484 21.9772 156.478 21.4401 155.084 23.4286C155.027 23.5086 154.992 23.5886 154.958 23.6686C156.924 22.2629 159.37 22.6972 159.37 22.6972Z" fill="url(#paint55_linear_7_790)"/>
<path d="M144.341 21.9772C144.341 21.9772 141.324 22.5029 140.65 24.8572C140.604 25.0058 140.592 25.1658 140.604 25.3143C140.627 25.6229 140.935 25.92 141.45 25.5886C144.649 23.52 146.627 24.24 148.101 24.7429C148.672 24.9372 149.13 24.3315 148.924 23.8515C148.867 23.7143 148.821 23.5658 148.729 23.4401C147.358 21.4401 144.341 21.9772 144.341 21.9772Z" fill="url(#paint56_radial_7_790)"/>
<path d="M144.467 22.6972C144.467 22.6972 142.01 23.1201 140.615 25.1315C140.627 25.0401 140.638 24.9486 140.661 24.8572C141.335 22.5029 144.352 21.9772 144.352 21.9772C144.352 21.9772 147.358 21.4401 148.752 23.4286C148.809 23.5086 148.844 23.5886 148.878 23.6686C146.912 22.2629 144.467 22.6972 144.467 22.6972Z" fill="url(#paint57_linear_7_790)"/>
<path opacity="0.5" d="M151.918 42.4802C162.017 42.4802 170.204 34.2933 170.204 24.1944C170.204 14.0955 162.017 5.90869 151.918 5.90869C141.819 5.90869 133.632 14.0955 133.632 24.1944C133.632 34.2933 141.819 42.4802 151.918 42.4802Z" fill="url(#paint58_radial_7_790)"/>
<path opacity="0.5" d="M151.918 42.4802C162.017 42.4802 170.204 34.2933 170.204 24.1944C170.204 14.0955 162.017 5.90869 151.918 5.90869C141.819 5.90869 133.632 14.0955 133.632 24.1944C133.632 34.2933 141.819 42.4802 151.918 42.4802Z" fill="url(#paint59_radial_7_790)"/>
<path opacity="0.5" d="M151.918 42.4802C162.017 42.4802 170.204 34.2933 170.204 24.1944C170.204 14.0955 162.017 5.90869 151.918 5.90869C141.819 5.90869 133.632 14.0955 133.632 24.1944C133.632 34.2933 141.819 42.4802 151.918 42.4802Z" fill="url(#paint60_radial_7_790)"/>
<path d="M164.204 4.68579C163.095 4.68579 162.112 5.24579 161.53 6.09151C160.947 5.24579 159.964 4.68579 158.855 4.68579C157.061 4.68579 155.61 6.13723 155.61 7.93153C155.61 11.8858 161.53 15.4401 161.53 15.4401C161.53 15.4401 167.45 11.8858 167.45 7.93153C167.45 6.13723 165.998 4.68579 164.204 4.68579Z" fill="url(#paint61_radial_7_790)"/>
<path opacity="0.5" d="M165.541 4.97144C167.312 7.80569 165.678 11.52 163.712 12.5714C161.541 13.7372 160.067 13.1886 156.992 11.44C158.741 13.76 161.518 15.4286 161.518 15.4286C161.518 15.4286 167.438 11.8743 167.438 7.91999C167.449 6.61715 166.672 5.48572 165.541 4.97144Z" fill="url(#paint62_radial_7_790)"/>
<path opacity="0.5" d="M164.204 4.68579C163.095 4.68579 162.112 5.24579 161.53 6.09151C160.947 5.24579 159.964 4.68579 158.855 4.68579C157.061 4.68579 155.61 6.13723 155.61 7.93153C155.61 11.8858 161.53 15.4401 161.53 15.4401C161.53 15.4401 167.45 11.8858 167.45 7.93153C167.45 6.13723 165.998 4.68579 164.204 4.68579Z" fill="url(#paint63_radial_7_790)"/>
<path opacity="0.5" d="M164.204 4.68579C163.095 4.68579 162.112 5.24579 161.53 6.09151C160.947 5.24579 159.964 4.68579 158.855 4.68579C157.061 4.68579 155.61 6.13723 155.61 7.93153C155.61 11.8858 161.53 15.4401 161.53 15.4401C161.53 15.4401 167.45 11.8858 167.45 7.93153C167.45 6.13723 165.998 4.68579 164.204 4.68579Z" fill="url(#paint64_radial_7_790)"/>
<path opacity="0.24" d="M160.718 5.99993C161.038 6.76562 160.318 7.80566 159.107 8.31992C157.895 8.83424 156.638 8.6399 156.318 7.87424C155.998 7.10852 156.718 6.06848 157.93 5.55421C159.141 5.03993 160.398 5.23422 160.718 5.99993Z" fill="url(#paint65_radial_7_790)"/>
<path opacity="0.24" d="M164.684 5.38305C165.141 5.89734 164.867 6.90304 164.044 7.6345C163.232 8.3659 162.204 8.54878 161.735 8.03446C161.278 7.5202 161.552 6.51448 162.375 5.78305C163.187 5.05162 164.227 4.86877 164.684 5.38305Z" fill="url(#paint66_radial_7_790)"/>
<path opacity="0.32" d="M164.261 5.54289C165.884 6.10288 167.438 8.50288 164.821 11.4972C163.244 13.2915 161.529 14.1943 159.347 13.8401C160.524 14.8229 161.529 15.4286 161.529 15.4286C161.529 15.4286 167.449 11.8743 167.449 7.92004C167.449 6.12574 165.998 4.67432 164.204 4.67432C163.095 4.67432 162.112 5.23431 161.529 6.08002C161.529 6.09148 163.072 5.14289 164.261 5.54289Z" fill="url(#paint67_linear_7_790)"/>
<path d="M141.084 27.8171C139.975 27.8171 138.992 28.3771 138.409 29.2228C137.827 28.3657 136.844 27.8171 135.735 27.8171C133.941 27.8171 132.489 29.2685 132.489 31.0514C132.489 35.0057 138.409 38.56 138.409 38.56C138.409 38.56 144.329 35.0057 144.329 31.0514C144.329 29.2685 142.878 27.8171 141.084 27.8171Z" fill="url(#paint68_radial_7_790)"/>
<path opacity="0.5" d="M142.421 28.1028C144.192 30.9371 142.558 34.6514 140.592 35.7028C138.421 36.8685 136.947 36.32 133.872 34.5714C135.621 36.8914 138.398 38.5599 138.398 38.5599C138.398 38.5599 144.318 35.0057 144.318 31.0514C144.329 29.7371 143.552 28.6056 142.421 28.1028Z" fill="url(#paint69_radial_7_790)"/>
<path opacity="0.5" d="M141.084 27.8171C139.975 27.8171 138.992 28.3771 138.409 29.2228C137.827 28.3657 136.844 27.8171 135.735 27.8171C133.941 27.8171 132.489 29.2685 132.489 31.0514C132.489 35.0057 138.409 38.56 138.409 38.56C138.409 38.56 144.329 35.0057 144.329 31.0514C144.329 29.2685 142.878 27.8171 141.084 27.8171Z" fill="url(#paint70_radial_7_790)"/>
<path opacity="0.5" d="M141.084 27.8171C139.975 27.8171 138.992 28.3771 138.409 29.2228C137.827 28.3657 136.844 27.8171 135.735 27.8171C133.941 27.8171 132.489 29.2685 132.489 31.0514C132.489 35.0057 138.409 38.56 138.409 38.56C138.409 38.56 144.329 35.0057 144.329 31.0514C144.329 29.2685 142.878 27.8171 141.084 27.8171Z" fill="url(#paint71_radial_7_790)"/>
<path opacity="0.24" d="M137.598 29.1314C137.918 29.8971 137.198 30.9371 135.987 31.4514C134.775 31.9657 133.518 31.7714 133.198 31.0057C132.878 30.24 133.598 29.2 134.81 28.6857C136.021 28.16 137.278 28.3657 137.598 29.1314Z" fill="url(#paint72_radial_7_790)"/>
<path opacity="0.24" d="M141.564 28.5144C142.021 29.0287 141.747 30.0344 140.924 30.7658C140.112 31.4973 139.084 31.6801 138.615 31.1658C138.147 30.6515 138.432 29.6459 139.255 28.9144C140.067 28.183 141.107 28.0001 141.564 28.5144Z" fill="url(#paint73_radial_7_790)"/>
<path opacity="0.32" d="M141.141 28.6745C142.764 29.2345 144.318 31.6345 141.701 34.6288C140.124 36.423 138.409 37.3259 136.227 36.9716C137.404 37.9545 138.409 38.5602 138.409 38.5602C138.409 38.5602 144.329 35.0059 144.329 31.0516C144.329 29.2574 142.878 27.8059 141.084 27.8059C139.975 27.8059 138.992 28.366 138.409 29.2117C138.409 29.2231 139.952 28.263 141.141 28.6745Z" fill="url(#paint74_linear_7_790)"/>
<path d="M167.415 32.5029C166.307 32.5029 165.324 33.0629 164.741 33.9087C164.158 33.0515 163.175 32.5029 162.067 32.5029C160.272 32.5029 158.821 33.9544 158.821 35.7486C158.821 39.7029 164.741 43.2572 164.741 43.2572C164.741 43.2572 170.661 39.7029 170.661 35.7486C170.661 33.9544 169.21 32.5029 167.415 32.5029Z" fill="url(#paint75_radial_7_790)"/>
<path opacity="0.5" d="M168.764 32.7886C170.535 35.6229 168.901 39.3372 166.935 40.3886C164.764 41.5543 163.289 41.0057 160.215 39.2572C161.964 41.5771 164.741 43.2457 164.741 43.2457C164.741 43.2457 170.661 39.6915 170.661 35.7372C170.661 34.4229 169.884 33.2914 168.764 32.7886Z" fill="url(#paint76_radial_7_790)"/>
<path opacity="0.5" d="M167.415 32.5029C166.307 32.5029 165.324 33.0629 164.741 33.9087C164.158 33.0515 163.175 32.5029 162.067 32.5029C160.272 32.5029 158.821 33.9544 158.821 35.7486C158.821 39.7029 164.741 43.2572 164.741 43.2572C164.741 43.2572 170.661 39.7029 170.661 35.7486C170.661 33.9544 169.21 32.5029 167.415 32.5029Z" fill="url(#paint77_radial_7_790)"/>
<path opacity="0.5" d="M167.415 32.5029C166.307 32.5029 165.324 33.0629 164.741 33.9087C164.158 33.0515 163.175 32.5029 162.067 32.5029C160.272 32.5029 158.821 33.9544 158.821 35.7486C158.821 39.7029 164.741 43.2572 164.741 43.2572C164.741 43.2572 170.661 39.7029 170.661 35.7486C170.661 33.9544 169.21 32.5029 167.415 32.5029Z" fill="url(#paint78_radial_7_790)"/>
<path opacity="0.24" d="M163.93 33.8172C164.25 34.5829 163.53 35.6229 162.318 36.1372C161.107 36.6515 159.85 36.4572 159.53 35.6915C159.21 34.9258 159.93 33.8858 161.141 33.3715C162.352 32.8458 163.61 33.0515 163.93 33.8172Z" fill="url(#paint79_radial_7_790)"/>
<path opacity="0.24" d="M167.895 33.2002C168.353 33.7145 168.078 34.7202 167.255 35.4517C166.444 36.1831 165.415 36.3659 164.947 35.8516C164.49 35.3374 164.764 34.3316 165.587 33.6002C166.398 32.8688 167.438 32.6859 167.895 33.2002Z" fill="url(#paint80_radial_7_790)"/>
<path opacity="0.32" d="M167.472 33.36C169.095 33.92 170.649 36.32 168.032 39.3143C166.455 41.1086 164.741 42.0114 162.558 41.6571C163.735 42.64 164.741 43.2457 164.741 43.2457C164.741 43.2457 170.661 39.6915 170.661 35.7372C170.661 33.9429 169.209 32.4915 167.415 32.4915C166.307 32.4915 165.324 33.0514 164.741 33.8971C164.741 33.9086 166.284 32.9486 167.472 33.36Z" fill="url(#paint81_linear_7_790)"/>
<path d="M278.86 42.57C288.959 42.57 297.145 34.3835 297.145 24.285C297.145 14.1865 288.959 6 278.86 6C268.762 6 260.575 14.1865 260.575 24.285C260.575 34.3835 268.762 42.57 278.86 42.57Z" fill="url(#paint82_radial_7_790)"/>
<path opacity="0.5" d="M278.86 42.57C288.959 42.57 297.145 34.3835 297.145 24.285C297.145 14.1865 288.959 6 278.86 6C268.762 6 260.575 14.1865 260.575 24.285C260.575 34.3835 268.762 42.57 278.86 42.57Z" fill="url(#paint83_radial_7_790)"/>
<path d="M272.89 25.0675C273.862 25.0675 274.65 23.8757 274.65 22.4056C274.65 20.9354 273.862 19.7437 272.89 19.7437C271.918 19.7437 271.13 20.9354 271.13 22.4056C271.13 23.8757 271.918 25.0675 272.89 25.0675Z" fill="url(#paint84_radial_7_790)"/>
<path d="M272.89 20.6449C273.647 20.6449 274.302 21.2998 274.65 22.2778C274.625 20.8405 273.851 19.6838 272.89 19.6838C271.929 19.6838 271.155 20.8405 271.13 22.2778C271.478 21.2998 272.133 20.6449 272.89 20.6449Z" fill="url(#paint85_linear_7_790)"/>
<path d="M284.83 25.0675C285.803 25.0675 286.591 23.8757 286.591 22.4056C286.591 20.9354 285.803 19.7437 284.83 19.7437C283.858 19.7437 283.07 20.9354 283.07 22.4056C283.07 23.8757 283.858 25.0675 284.83 25.0675Z" fill="url(#paint86_radial_7_790)"/>
<path d="M284.83 20.7047C284.074 20.7047 283.419 21.3595 283.07 22.3376C283.096 20.9003 283.869 19.7437 284.83 19.7437C285.791 19.7437 286.565 20.9003 286.591 22.3376C286.242 21.368 285.587 20.7047 284.83 20.7047Z" fill="url(#paint87_linear_7_790)"/>
<path d="M282.917 14.5981C282.959 13.8667 283.776 13.45 285.137 13.5266C286.293 13.5946 288.794 14.3685 290.418 16.7158C290.716 17.1496 290.205 17.3452 289.908 17.0645C288.887 16.0949 286.072 14.7598 283.81 14.8703C282.891 14.9213 282.917 14.5981 282.917 14.5981Z" fill="url(#paint88_linear_7_790)"/>
<path d="M274.803 14.5981C274.761 13.8667 273.944 13.45 272.584 13.5266C271.427 13.5946 268.927 14.3685 267.302 16.7158C267.005 17.1496 267.515 17.3452 267.813 17.0645C268.833 16.0949 271.648 14.7598 273.91 14.8703C274.829 14.9213 274.803 14.5981 274.803 14.5981Z" fill="url(#paint89_linear_7_790)"/>
<path d="M278.86 38.9302C281.143 38.9302 282.993 36.4589 282.993 33.4106C282.993 30.3623 281.143 27.8911 278.86 27.8911C276.577 27.8911 274.727 30.3623 274.727 33.4106C274.727 36.4589 276.577 38.9302 278.86 38.9302Z" fill="url(#paint90_radial_7_790)"/>
<path d="M278.86 29.6005C280.646 29.6005 282.194 30.9358 282.976 32.8918C282.781 30.0853 281.012 27.8911 278.86 27.8911C276.709 27.8911 274.94 30.0853 274.744 32.8918C275.526 30.9358 277.074 29.6005 278.86 29.6005Z" fill="url(#paint91_linear_7_790)"/>
<path d="M278.86 32.0242C279.957 32.0242 280.995 31.8541 281.93 31.565C281.42 29.8725 280.238 28.6904 278.86 28.6904C277.482 28.6904 276.3 29.8811 275.79 31.565C276.725 31.8626 277.763 32.0242 278.86 32.0242Z" fill="url(#paint92_radial_7_790)"/>
<path d="M215.541 42.2858C225.64 42.2858 233.827 34.099 233.827 24.0001C233.827 13.9012 225.64 5.71436 215.541 5.71436C205.442 5.71436 197.255 13.9012 197.255 24.0001C197.255 34.099 205.442 42.2858 215.541 42.2858Z" fill="url(#paint93_radial_7_790)"/>
<path opacity="0.5" d="M215.541 42.2858C225.64 42.2858 233.827 34.099 233.827 24.0001C233.827 13.9012 225.64 5.71436 215.541 5.71436C205.442 5.71436 197.255 13.9012 197.255 24.0001C197.255 34.099 205.442 42.2858 215.541 42.2858Z" fill="url(#paint94_radial_7_790)"/>
<path d="M221.381 15.7488C221.507 15.0288 222.364 14.7088 223.701 14.9373C224.844 15.1317 227.244 16.1945 228.592 18.7088C228.844 19.1773 228.307 19.3145 228.044 18.9945C227.141 17.9088 224.49 16.2631 222.227 16.1259C221.312 16.0688 221.381 15.7488 221.381 15.7488Z" fill="url(#paint95_linear_7_790)"/>
<path d="M223.347 19.6916C223.347 19.6916 226.535 20.0115 227.427 22.423C227.484 22.5716 227.518 22.7316 227.507 22.8915C227.507 23.2116 227.21 23.5544 226.638 23.2458C223.141 21.3144 221.118 22.2287 219.61 22.8573C219.027 23.1087 218.501 22.5144 218.684 21.9887C218.73 21.8401 218.775 21.6801 218.855 21.543C220.17 19.3487 223.347 19.6916 223.347 19.6916Z" fill="url(#paint96_radial_7_790)"/>
<path d="M223.278 20.4458C223.278 20.4458 225.872 20.7087 227.495 22.6973C227.484 22.6058 227.461 22.5144 227.427 22.423C226.535 20.0115 223.347 19.6916 223.347 19.6916C223.347 19.6916 220.158 19.3487 218.855 21.543C218.81 21.623 218.764 21.7144 218.741 21.8058C220.684 20.1716 223.278 20.4458 223.278 20.4458Z" fill="url(#paint97_linear_7_790)"/>
<path d="M227.884 27.097C227.747 27.0398 227.598 27.0398 227.461 27.0741C223.598 28.1712 219.598 28.7313 215.541 28.7313C211.495 28.7313 207.484 28.1712 203.621 27.0741C203.484 27.0284 203.335 27.0398 203.198 27.097C202.775 27.2684 202.124 27.897 202.992 30.3084C204.307 33.3826 207.724 38.7884 215.552 38.7884C223.347 38.7884 226.787 33.3712 228.101 30.297C228.958 27.897 228.307 27.2684 227.884 27.097Z" fill="url(#paint98_radial_7_790)"/>
<path d="M209.701 15.7488C209.575 15.0288 208.718 14.7088 207.381 14.9373C206.238 15.1317 203.838 16.1945 202.49 18.7088C202.238 19.1773 202.775 19.3145 203.038 18.9945C203.941 17.9088 206.592 16.2631 208.855 16.1259C209.758 16.0688 209.701 15.7488 209.701 15.7488Z" fill="url(#paint99_linear_7_790)"/>
<path d="M207.724 19.6916C207.724 19.6916 204.535 20.0115 203.644 22.423C203.587 22.5716 203.552 22.7316 203.564 22.8915C203.564 23.2116 203.861 23.5544 204.432 23.2458C207.929 21.3144 209.952 22.2287 211.461 22.8573C212.044 23.1087 212.57 22.5144 212.387 21.9887C212.341 21.8401 212.295 21.6801 212.215 21.543C210.912 19.3487 207.724 19.6916 207.724 19.6916Z" fill="url(#paint100_radial_7_790)"/>
<path d="M207.792 20.4458C207.792 20.4458 205.198 20.7087 203.575 22.6973C203.587 22.6058 203.609 22.5144 203.644 22.423C204.535 20.0115 207.724 19.6916 207.724 19.6916C207.724 19.6916 210.912 19.3487 212.215 21.543C212.261 21.623 212.307 21.7144 212.329 21.8058C210.387 20.1716 207.792 20.4458 207.792 20.4458Z" fill="url(#paint101_linear_7_790)"/>
<path d="M201.61 30.6287C201.678 33.0287 199.518 34.4001 197.678 34.08C195.85 33.7601 194.398 31.9315 195.061 29.7372C196.581 24.7315 203.347 23.8286 203.347 23.8286C203.347 23.8286 201.518 27.3944 201.61 30.6287Z" fill="url(#paint102_linear_7_790)"/>
<path d="M199.187 30.1715C197.735 32.0343 194.524 30.9944 195.53 28.6058C195.347 28.9601 195.187 29.3372 195.061 29.7486C194.398 31.9429 195.85 33.7829 197.678 34.0915C199.507 34.4115 201.667 33.0401 201.61 30.6401C201.53 27.4058 203.347 23.8401 203.347 23.8401C199.678 27.4972 199.895 29.2572 199.187 30.1715Z" fill="url(#paint103_linear_7_790)"/>
<path d="M200.981 29.0515C200.295 32.9258 195.655 32.8686 194.935 30.2629C194.627 32.2172 195.987 33.7943 197.678 34.08C199.507 34.4001 201.667 33.0287 201.61 30.6287C201.529 27.3944 203.347 23.8286 203.347 23.8286C203.347 23.8286 201.541 25.8744 200.981 29.0515Z" fill="url(#paint104_linear_7_790)"/>
<path d="M200.33 31.3029C198.661 33.7943 195.678 32.6515 194.89 30.8115C194.89 31.6572 195.21 32.4115 195.712 32.9943C198.661 35.2572 201.518 32.4229 201.598 30.7772C201.598 30.7315 201.598 30.6858 201.598 30.6401C201.598 30.5829 201.598 30.5258 201.598 30.4572C201.587 27.2687 203.335 23.8401 203.335 23.8401C200.775 27.5201 202.375 28.2515 200.33 31.3029Z" fill="url(#paint105_linear_7_790)"/>
<path opacity="0.75" d="M203.347 23.8286C203.347 23.8286 198.512 26.2858 198.09 28.6172C197.667 30.9486 195.404 29.8972 195.918 28.6515C196.832 26.4686 200.49 24.4001 203.347 23.8286Z" fill="url(#paint106_linear_7_790)"/>
<path d="M215.541 37.943C218.775 37.943 221.21 36.9487 223.027 35.5887C221.027 34.6859 218.57 34.0916 215.541 34.0916C212.512 34.0916 210.044 34.6859 208.044 35.5887C209.861 36.9487 212.295 37.943 215.541 37.943Z" fill="url(#paint107_radial_7_790)"/>
<path d="M229.472 30.6287C229.404 33.0287 231.564 34.4001 233.404 34.08C235.232 33.7601 236.684 31.9315 236.021 29.7372C234.501 24.7315 227.735 23.8286 227.735 23.8286C227.735 23.8286 229.552 27.3944 229.472 30.6287Z" fill="url(#paint108_linear_7_790)"/>
<path d="M231.895 30.1715C233.347 32.0343 236.558 30.9944 235.552 28.6058C235.735 28.9601 235.895 29.3372 236.021 29.7486C236.684 31.9429 235.232 33.7829 233.404 34.0915C231.575 34.4115 229.415 33.0401 229.472 30.6401C229.552 27.4058 227.735 23.8401 227.735 23.8401C231.392 27.4972 231.175 29.2572 231.895 30.1715Z" fill="url(#paint109_linear_7_790)"/>
<path d="M230.09 29.0515C230.775 32.9258 235.415 32.8686 236.135 30.2629C236.444 32.2172 235.084 33.7943 233.392 34.08C231.564 34.4001 229.404 33.0287 229.461 30.6287C229.541 27.3944 227.724 23.8286 227.724 23.8286C227.724 23.8286 229.53 25.8744 230.09 29.0515Z" fill="url(#paint110_linear_7_790)"/>
<path d="M230.741 31.3029C232.41 33.7943 235.392 32.6515 236.181 30.8115C236.181 31.6572 235.861 32.4115 235.358 32.9943C232.41 35.2572 229.552 32.4229 229.472 30.7772C229.472 30.7315 229.472 30.6858 229.472 30.6401C229.472 30.5829 229.472 30.5258 229.472 30.4572C229.484 27.2687 227.735 23.8401 227.735 23.8401C230.307 27.5201 228.707 28.2515 230.741 31.3029Z" fill="url(#paint111_linear_7_790)"/>
<path opacity="0.75" d="M227.735 23.8286C227.735 23.8286 232.57 26.2858 232.992 28.6172C233.415 30.9372 235.678 29.8972 235.164 28.6515C234.25 26.4686 230.592 24.4001 227.735 23.8286Z" fill="url(#paint112_linear_7_790)"/>
<path d="M203.507 27.0515C203.484 27.04 203.45 27.04 203.427 27.04C203.164 27.0629 201.907 27.3258 202.981 30.3086C203.507 31.5543 204.387 33.1657 205.758 34.6629C204.478 33.1429 206.055 32.2972 208.878 32.6401C211.701 32.9829 215.541 32.9829 215.541 32.9829V28.7315C211.45 28.7429 207.404 28.1715 203.507 27.0515Z" fill="url(#paint113_linear_7_790)"/>
<path d="M227.564 27.0515C227.587 27.04 227.621 27.04 227.644 27.04C227.907 27.0629 229.164 27.3258 228.09 30.3086C227.564 31.5543 226.684 33.1657 225.312 34.6629C226.592 33.1429 225.015 32.2972 222.192 32.6401C219.369 32.9829 215.529 32.9829 215.529 32.9829V28.7315C219.621 28.7429 223.667 28.1715 227.564 27.0515Z" fill="url(#paint114_linear_7_790)"/>
<path d="M226.398 31.0172C226.924 30.8915 227.324 30.4457 227.37 29.8971L227.564 27.9429C223.667 29.04 219.632 29.6 215.541 29.6C211.461 29.6 207.415 29.04 203.518 27.9429L203.712 29.8971C203.769 30.4343 204.158 30.8915 204.684 31.0172C208.227 31.8629 211.872 32.2857 215.541 32.2857C219.21 32.2857 222.855 31.8629 226.398 31.0172Z" fill="url(#paint115_radial_7_790)"/>
<path d="M342.86 42.57C352.959 42.57 361.145 34.3835 361.145 24.285C361.145 14.1865 352.959 6 342.86 6C332.762 6 324.575 14.1865 324.575 24.285C324.575 34.3835 332.762 42.57 342.86 42.57Z" fill="url(#paint116_radial_7_790)"/>
<path opacity="0.5" d="M342.86 42.57C352.959 42.57 361.145 34.3835 361.145 24.285C361.145 14.1865 352.959 6 342.86 6C332.762 6 324.575 14.1865 324.575 24.285C324.575 34.3835 332.762 42.57 342.86 42.57Z" fill="url(#paint117_radial_7_790)"/>
<path d="M342.86 42.57C352.959 42.57 361.145 34.3835 361.145 24.285C361.145 14.1865 352.959 6 342.86 6C332.762 6 324.575 14.1865 324.575 24.285C324.575 34.3835 332.762 42.57 342.86 42.57Z" fill="url(#paint118_radial_7_790)"/>
<path d="M331.265 17.1969C331.308 18.0789 332.137 18.5844 333.492 18.5091C334.653 18.4446 337.149 17.541 338.751 14.7445C339.042 14.2282 338.536 13.9809 338.235 14.325C337.224 15.4759 334.417 17.0463 332.147 16.8742C331.244 16.8096 331.265 17.1969 331.265 17.1969Z" fill="url(#paint119_linear_7_790)"/>
<path d="M336.891 25.0595C337.865 25.0595 338.655 23.8701 338.655 22.4028C338.655 20.9355 337.865 19.7461 336.891 19.7461C335.916 19.7461 335.127 20.9355 335.127 22.4028C335.127 23.8701 335.916 25.0595 336.891 25.0595Z" fill="url(#paint120_radial_7_790)"/>
<path d="M336.891 20.6386C337.644 20.6386 338.31 21.2947 338.655 22.2735C338.633 20.8323 337.848 19.6814 336.891 19.6814C335.933 19.6814 335.148 20.843 335.127 22.2735C335.471 21.3055 336.138 20.6386 336.891 20.6386Z" fill="url(#paint121_linear_7_790)"/>
<path d="M348.83 25.0595C349.804 25.0595 350.594 23.8701 350.594 22.4028C350.594 20.9355 349.804 19.7461 348.83 19.7461C347.856 19.7461 347.066 20.9355 347.066 22.4028C347.066 23.8701 347.856 25.0595 348.83 25.0595Z" fill="url(#paint122_radial_7_790)"/>
<path d="M354.455 17.2613C354.412 18.1433 353.584 18.6488 352.229 18.5735C351.067 18.509 348.572 17.6055 346.969 14.809C346.679 14.2927 347.184 14.0453 347.485 14.3895C348.496 15.5404 351.304 17.1107 353.573 16.9386C354.477 16.8741 354.455 17.2613 354.455 17.2613Z" fill="url(#paint123_linear_7_790)"/>
<path d="M348.83 20.7034C348.077 20.7034 347.41 21.3595 347.066 22.3383C347.087 20.897 347.872 19.7461 348.83 19.7461C349.787 19.7461 350.572 20.9078 350.594 22.3383C350.25 21.3702 349.583 20.7034 348.83 20.7034Z" fill="url(#paint124_linear_7_790)"/>
<path d="M342.86 31.0505C348.227 31.0505 349.938 36.3532 348.303 35.525C346.108 34.4064 344.721 34.3096 342.86 34.3096C340.999 34.3096 339.612 34.4171 337.418 35.525C335.783 36.3532 337.493 31.0505 342.86 31.0505Z" fill="#643800"/>
<path d="M342.86 31.9863C346.022 31.9863 348.023 33.7718 348.894 35.2561C348.948 34.1805 346.98 31.0505 342.86 31.0505C338.741 31.0505 336.772 34.1805 336.826 35.2561C337.697 33.7826 339.698 31.9863 342.86 31.9863Z" fill="url(#paint125_linear_7_790)"/>
<path d="M335.675 33.6962C336.762 36.4174 334.869 38.8912 332.642 39.3C330.416 39.7087 327.974 38.2244 327.813 35.4386C327.436 29.0711 334.804 25.1882 334.804 25.1882C334.804 25.1882 334.223 30.0284 335.675 33.6962Z" fill="url(#paint126_linear_7_790)"/>
<path d="M332.717 34.1804C331.835 36.9232 327.737 37.0953 327.877 33.9223C327.812 34.4063 327.791 34.9118 327.823 35.4281C327.985 38.2139 330.426 39.709 332.653 39.2895C334.879 38.8808 336.772 36.4069 335.686 33.6857C334.223 30.0179 334.804 25.167 334.804 25.167C332.158 30.9107 333.147 32.836 332.717 34.1804Z" fill="url(#paint127_linear_7_790)"/>
<path d="M334.298 32.1476C335.148 36.8695 329.824 38.7517 327.899 36.0735C328.372 38.4398 330.598 39.6659 332.642 39.2895C334.869 38.8808 336.762 36.4069 335.675 33.6857C334.212 30.0179 334.793 25.167 334.793 25.167C334.793 25.167 333.599 28.2755 334.298 32.1476Z" fill="url(#paint128_linear_7_790)"/>
<path d="M334.514 34.9871C333.664 38.5366 329.76 38.4828 328.082 36.7189C328.437 37.6869 329.125 38.4183 329.942 38.8593C334.277 40.2038 336.342 35.7508 335.74 33.8363C335.718 33.7825 335.708 33.7287 335.686 33.6857C335.654 33.6212 335.632 33.5459 335.611 33.4706C334.255 29.8351 334.815 25.167 334.815 25.167C333.417 30.4804 335.557 30.6418 334.514 34.9871Z" fill="url(#paint129_linear_7_790)"/>
<path d="M335.675 33.6964C336.762 36.4176 334.869 38.8915 332.642 39.3002C330.416 39.7089 327.974 38.2246 327.813 35.4388C327.436 29.0714 334.804 25.1885 334.804 25.1885C334.804 25.1885 334.223 30.0286 335.675 33.6964Z" fill="url(#paint130_radial_7_790)"/>
<path d="M406.575 42.2858C416.674 42.2858 424.861 34.099 424.861 24.0001C424.861 13.9012 416.674 5.71436 406.575 5.71436C396.476 5.71436 388.289 13.9012 388.289 24.0001C388.289 34.099 396.476 42.2858 406.575 42.2858Z" fill="url(#paint131_radial_7_790)"/>
<path d="M406.221 31.4287C406.221 31.4287 410.015 31.4173 411.318 34.4344C411.398 34.6287 411.455 34.8344 411.467 35.0401C411.501 35.463 411.204 35.8973 410.484 35.6116C409.329 35.1544 407.341 34.9258 406.221 34.9258C405.101 34.9258 403.124 35.1544 401.958 35.6116C401.238 35.8973 400.941 35.463 400.975 35.0401C400.987 34.8344 401.044 34.6287 401.124 34.4344C402.438 31.4173 406.221 31.4287 406.221 31.4287Z" fill="url(#paint132_radial_7_790)"/>
<path d="M400.61 28.6399C401.582 28.6399 402.37 27.4477 402.37 25.9771C402.37 24.5065 401.582 23.3142 400.61 23.3142C399.638 23.3142 398.85 24.5065 398.85 25.9771C398.85 27.4477 399.638 28.6399 400.61 28.6399Z" fill="url(#paint133_radial_7_790)"/>
<path d="M399.912 25.0172C400.941 25.0172 401.798 26.0687 402.05 27.4972C402.255 27.0629 402.37 26.5372 402.37 25.9658C402.37 24.4915 401.581 23.303 400.61 23.303C399.764 23.303 399.055 24.1944 398.884 25.3944C399.192 25.1544 399.535 25.0172 399.912 25.0172Z" fill="url(#paint134_linear_7_790)"/>
<path d="M398.724 19.4858C397.147 19.4858 395.798 21.303 397.558 21.5773C399.318 21.8516 402.518 23.3716 403.878 24.423C403.981 24.5487 404.381 24.503 404.347 24.1944C404.347 23.0059 400.644 19.4858 398.724 19.4858Z" fill="url(#paint135_linear_7_790)"/>
<path d="M406.221 32.423C406.221 32.423 409.307 32.4115 411.421 34.7887C411.398 34.663 411.364 34.5487 411.307 34.4344C410.004 31.4173 406.209 31.4287 406.209 31.4287C406.209 31.4287 402.415 31.4173 401.112 34.4344C401.067 34.5487 401.032 34.663 400.998 34.7887C403.135 32.4115 406.221 32.423 406.221 32.423Z" fill="url(#paint136_linear_7_790)"/>
<path d="M412.541 28.6399C413.513 28.6399 414.301 27.4477 414.301 25.9771C414.301 24.5065 413.513 23.3142 412.541 23.3142C411.569 23.3142 410.781 24.5065 410.781 25.9771C410.781 27.4477 411.569 28.6399 412.541 28.6399Z" fill="url(#paint137_radial_7_790)"/>
<path d="M413.238 25.0172C412.209 25.0172 411.352 26.0687 411.101 27.4972C410.895 27.0629 410.781 26.5372 410.781 25.9658C410.781 24.4915 411.569 23.303 412.541 23.303C413.387 23.303 414.095 24.1944 414.267 25.3944C413.958 25.1544 413.615 25.0172 413.238 25.0172Z" fill="url(#paint138_linear_7_790)"/>
<path d="M414.427 19.4858C416.004 19.4858 417.352 21.303 415.592 21.5773C413.832 21.8516 410.632 23.3716 409.272 24.423C409.169 24.5487 408.769 24.503 408.804 24.1944C408.804 23.0059 412.507 19.4858 414.427 19.4858Z" fill="url(#paint139_linear_7_790)"/>
<defs>
<linearGradient id="paint0_linear_7_790" x1="29.1208" y1="23.2505" x2="22.6908" y2="23.5086" gradientUnits="userSpaceOnUse">
<stop offset="0.00132565" stop-color="#F0C492"/>
<stop offset="1" stop-color="#F8DBBA"/>
</linearGradient>
<linearGradient id="paint1_linear_7_790" x1="23.7152" y1="25.6172" x2="19.6013" y2="41.7363" gradientUnits="userSpaceOnUse">
<stop offset="0.3118" stop-color="#F0C492" stop-opacity="0"/>
<stop offset="1" stop-color="#E6AF74"/>
</linearGradient>
<linearGradient id="paint2_linear_7_790" x1="17.8508" y1="16.6818" x2="30.2568" y2="17.6114" gradientUnits="userSpaceOnUse">
<stop offset="0.3118" stop-color="#F0C492" stop-opacity="0"/>
<stop offset="1" stop-color="#E6AF74"/>
</linearGradient>
<linearGradient id="paint3_linear_7_790" x1="14.0612" y1="27.7066" x2="32.0139" y2="27.7066" gradientUnits="userSpaceOnUse">
<stop offset="0.3118" stop-color="#F0C492" stop-opacity="0"/>
<stop offset="1" stop-color="#E6AF74"/>
</linearGradient>
<linearGradient id="paint4_linear_7_790" x1="13.9758" y1="28.1057" x2="30.6119" y2="28.1057" gradientUnits="userSpaceOnUse">
<stop offset="0.3118" stop-color="#F0C492" stop-opacity="0"/>
<stop offset="1" stop-color="#E6AF74"/>
</linearGradient>
<linearGradient id="paint5_linear_7_790" x1="10.8169" y1="27.7804" x2="44.1559" y2="28.1651" gradientUnits="userSpaceOnUse">
<stop stop-color="#D2A374" stop-opacity="0"/>
<stop offset="1" stop-color="#B88653"/>
</linearGradient>
<linearGradient id="paint6_linear_7_790" x1="26.199" y1="27.8416" x2="30.6373" y2="27.2585" gradientUnits="userSpaceOnUse">
<stop stop-color="#643800" stop-opacity="0"/>
<stop offset="1" stop-color="#643800"/>
</linearGradient>
<radialGradient id="paint7_radial_7_790" cx="0" cy="0" r="1" gradientUnits="userSpaceOnUse" gradientTransform="translate(16.4962 18.1111) scale(9.383)">
<stop stop-color="#F0C492" stop-opacity="0"/>
<stop offset="1" stop-color="#F0C492"/>
</radialGradient>
<linearGradient id="paint8_linear_7_790" x1="29.3579" y1="25.0941" x2="29.6999" y2="16.5884" gradientUnits="userSpaceOnUse">
<stop offset="0.00132565" stop-color="#F0C492"/>
<stop offset="1" stop-color="#F8DBBA"/>
</linearGradient>
<linearGradient id="paint9_linear_7_790" x1="33.0578" y1="29.8172" x2="26.7561" y2="29.8172" gradientUnits="userSpaceOnUse">
<stop offset="0.00132565" stop-color="#F0C492"/>
<stop offset="1" stop-color="#F8DBBA"/>
</linearGradient>
<linearGradient id="paint10_linear_7_790" x1="33.0578" y1="32.799" x2="26.7596" y2="32.799" gradientUnits="userSpaceOnUse">
<stop offset="0.00132565" stop-color="#F0C492"/>
<stop offset="1" stop-color="#F8DBBA"/>
</linearGradient>
<linearGradient id="paint11_linear_7_790" x1="24.8809" y1="23.2194" x2="28.1613" y2="23.1446" gradientUnits="userSpaceOnUse">
<stop offset="0.00132565" stop-color="#F0C492"/>
<stop offset="1" stop-color="#EFD8B7"/>
</linearGradient>
<linearGradient id="paint12_linear_7_790" x1="31.6473" y1="29.8621" x2="28.3033" y2="29.8621" gradientUnits="userSpaceOnUse">
<stop offset="0.00132565" stop-color="#F0C492"/>
<stop offset="1" stop-color="#EFD8B7"/>
</linearGradient>
<linearGradient id="paint13_linear_7_790" x1="31.0378" y1="36.2483" x2="25.4599" y2="27.0587" gradientUnits="userSpaceOnUse">
<stop offset="0.00132565" stop-color="#F0C492"/>
<stop offset="1" stop-color="#EFD8B7"/>
</linearGradient>
<linearGradient id="paint14_linear_7_790" x1="16.7089" y1="27.6598" x2="14.7385" y2="27.6598" gradientUnits="userSpaceOnUse">
<stop offset="0.3118" stop-color="#F0C492" stop-opacity="0"/>
<stop offset="1" stop-color="#E6AF74"/>
</linearGradient>
<linearGradient id="paint15_linear_7_790" x1="27.5653" y1="23.1191" x2="25.7811" y2="23.1191" gradientUnits="userSpaceOnUse">
<stop offset="0.3118" stop-color="#F0C492" stop-opacity="0"/>
<stop offset="1" stop-color="#E6AF74"/>
</linearGradient>
<linearGradient id="paint16_linear_7_790" x1="27.2449" y1="23.1703" x2="25.193" y2="23.1703" gradientUnits="userSpaceOnUse">
<stop offset="0.3118" stop-color="#F0C492" stop-opacity="0"/>
<stop offset="1" stop-color="#E6AF74"/>
</linearGradient>
<radialGradient id="paint17_radial_7_790" cx="0" cy="0" r="1" gradientUnits="userSpaceOnUse" gradientTransform="translate(22.2879 30.8429) rotate(23.5256) scale(2.50382 1.16248)">
<stop stop-color="#F8E6D2"/>
<stop offset="0.7237" stop-color="#F8E6D2" stop-opacity="0"/>
</radialGradient>
<radialGradient id="paint18_radial_7_790" cx="0" cy="0" r="1" gradientUnits="userSpaceOnUse" gradientTransform="translate(29.8837 23.181) rotate(2.02715) scale(2.14215 1.40598)">
<stop stop-color="#F8E6D2"/>
<stop offset="1" stop-color="#F8E6D2" stop-opacity="0"/>
</radialGradient>
<radialGradient id="paint19_radial_7_790" cx="0" cy="0" r="1" gradientUnits="userSpaceOnUse" gradientTransform="translate(29.762 30.0824) rotate(-0.054387) scale(2.30127 1.2401)">
<stop stop-color="#F8E6D2"/>
<stop offset="1" stop-color="#F8E6D2" stop-opacity="0"/>
</radialGradient>
<radialGradient id="paint20_radial_7_790" cx="0" cy="0" r="1" gradientUnits="userSpaceOnUse" gradientTransform="translate(28.9559 32.8698) rotate(-0.0539336) scale(2.10732 1.3182)">
<stop stop-color="#F8E6D2"/>
<stop offset="1" stop-color="#F8E6D2" stop-opacity="0"/>
</radialGradient>
<linearGradient id="paint21_linear_7_790" x1="27.7792" y1="29.7817" x2="25.1932" y2="29.7817" gradientUnits="userSpaceOnUse">
<stop offset="0.3118" stop-color="#F0C492" stop-opacity="0"/>
<stop offset="1" stop-color="#E6AF74"/>
</linearGradient>
<linearGradient id="paint22_linear_7_790" x1="27.2295" y1="29.6915" x2="25.8366" y2="29.6915" gradientUnits="userSpaceOnUse">
<stop offset="0.3118" stop-color="#F0C492" stop-opacity="0"/>
<stop offset="1" stop-color="#E6AF74"/>
</linearGradient>
<linearGradient id="paint23_linear_7_790" x1="27.6862" y1="32.816" x2="24.6621" y2="32.2603" gradientUnits="userSpaceOnUse">
<stop offset="0.3118" stop-color="#F0C492" stop-opacity="0"/>
<stop offset="1" stop-color="#E6AF74"/>
</linearGradient>
<linearGradient id="paint24_linear_7_790" x1="27.3734" y1="32.7172" x2="26.0952" y2="32.7172" gradientUnits="userSpaceOnUse">
<stop offset="0.3118" stop-color="#F0C492" stop-opacity="0"/>
<stop offset="1" stop-color="#E6AF74"/>
</linearGradient>
<linearGradient id="paint25_linear_7_790" x1="29.4112" y1="22.7684" x2="30.2233" y2="26.7007" gradientUnits="userSpaceOnUse">
<stop stop-color="#E6AF74" stop-opacity="0"/>
<stop offset="1" stop-color="#E6AF74"/>
</linearGradient>
<linearGradient id="paint26_linear_7_790" x1="29.5126" y1="30.6373" x2="29.8012" y2="27.3034" gradientUnits="userSpaceOnUse">
<stop stop-color="#D2A374" stop-opacity="0"/>
<stop offset="1" stop-color="#B88653"/>
</linearGradient>
<linearGradient id="paint27_linear_7_790" x1="33.0578" y1="26.7632" x2="26.7596" y2="26.7632" gradientUnits="userSpaceOnUse">
<stop offset="0.00132565" stop-color="#F0C492"/>
<stop offset="1" stop-color="#F8DBBA"/>
</linearGradient>
<linearGradient id="paint28_linear_7_790" x1="29.4408" y1="28.9321" x2="30.0392" y2="22.8841" gradientUnits="userSpaceOnUse">
<stop offset="0.00132565" stop-color="#F0C492"/>
<stop offset="1" stop-color="#EFD8B7"/>
</linearGradient>
<linearGradient id="paint29_linear_7_790" x1="28.3882" y1="26.698" x2="24.7837" y2="26.698" gradientUnits="userSpaceOnUse">
<stop offset="0.3118" stop-color="#F0C492" stop-opacity="0"/>
<stop offset="1" stop-color="#E6AF74"/>
</linearGradient>
<radialGradient id="paint30_radial_7_790" cx="0" cy="0" r="1" gradientUnits="userSpaceOnUse" gradientTransform="translate(30.4756 26.7065) rotate(-2.73441) scale(2.44506 1.60397)">
<stop stop-color="#F8E6D2"/>
<stop offset="1" stop-color="#F8E6D2" stop-opacity="0"/>
</radialGradient>
<linearGradient id="paint31_linear_7_790" x1="26.7128" y1="26.6938" x2="25.5747" y2="26.6938" gradientUnits="userSpaceOnUse">
<stop offset="0.3118" stop-color="#F0C492" stop-opacity="0"/>
<stop offset="1" stop-color="#E6AF74"/>
</linearGradient>
<linearGradient id="paint32_linear_7_790" x1="29.7099" y1="26.3472" x2="30.3938" y2="30.6962" gradientUnits="userSpaceOnUse">
<stop stop-color="#E6AF74" stop-opacity="0"/>
<stop offset="1" stop-color="#E6AF74"/>
</linearGradient>
<linearGradient id="paint33_linear_7_790" x1="29.2356" y1="29.7116" x2="30.9881" y2="33.5156" gradientUnits="userSpaceOnUse">
<stop stop-color="#E6AF74" stop-opacity="0"/>
<stop offset="1" stop-color="#E6AF74"/>
</linearGradient>
<linearGradient id="paint34_linear_7_790" x1="28.8863" y1="33.048" x2="29.1428" y2="35.4523" gradientUnits="userSpaceOnUse">
<stop stop-color="#E6AF74" stop-opacity="0"/>
<stop offset="1" stop-color="#E6AF74"/>
</linearGradient>
<linearGradient id="paint35_linear_7_790" x1="28.9468" y1="32.6835" x2="28.9468" y2="30.9443" gradientUnits="userSpaceOnUse">
<stop stop-color="#FFBA47" stop-opacity="0"/>
<stop offset="1" stop-color="#C66F34"/>
</linearGradient>
<linearGradient id="paint36_linear_7_790" x1="17.1994" y1="27.8822" x2="11.7498" y2="36.1208" gradientUnits="userSpaceOnUse">
<stop offset="0.3118" stop-color="#F0C492" stop-opacity="0"/>
<stop offset="1" stop-color="#D2A374"/>
</linearGradient>
<radialGradient id="paint37_radial_7_790" cx="0" cy="0" r="1" gradientUnits="userSpaceOnUse" gradientTransform="translate(17.4133 31.5636) scale(1.61837)">
<stop stop-color="#F0C492" stop-opacity="0"/>
<stop offset="1" stop-color="#F0C492"/>
</radialGradient>
<linearGradient id="paint38_linear_7_790" x1="17.3834" y1="30.4557" x2="17.2552" y2="35.3604" gradientUnits="userSpaceOnUse">
<stop stop-color="#F0C492" stop-opacity="0"/>
<stop offset="1" stop-color="#E6AF74"/>
</linearGradient>
<radialGradient id="paint39_radial_7_790" cx="0" cy="0" r="1" gradientUnits="userSpaceOnUse" gradientTransform="translate(25.1361 15.2424) rotate(79.0631) scale(1.8269 1.07229)">
<stop stop-color="#F8E6D2"/>
<stop offset="1" stop-color="#F8E6D2" stop-opacity="0"/>
</radialGradient>
<radialGradient id="paint40_radial_7_790" cx="0" cy="0" r="1" gradientUnits="userSpaceOnUse" gradientTransform="translate(85.5579 20.3912) rotate(-29.408) scale(16.0947 12.7672)">
<stop offset="0.2479" stop-color="#FF0000"/>
<stop offset="0.8639" stop-color="#C20000"/>
</radialGradient>
<radialGradient id="paint41_radial_7_790" cx="0" cy="0" r="1" gradientUnits="userSpaceOnUse" gradientTransform="translate(85.9558 19.4039) rotate(-29.408) scale(13.857 10.9921)">
<stop offset="0.2479" stop-color="#FF0000"/>
<stop offset="1" stop-color="#C20000"/>
</radialGradient>
<radialGradient id="paint42_radial_7_790" cx="0" cy="0" r="1" gradientUnits="userSpaceOnUse" gradientTransform="translate(85.5579 20.3912) rotate(-29.408) scale(16.0947 12.7672)">
<stop stop-color="white" stop-opacity="0.25"/>
<stop offset="1" stop-color="white" stop-opacity="0"/>
</radialGradient>
<radialGradient id="paint43_radial_7_790" cx="0" cy="0" r="1" gradientUnits="userSpaceOnUse" gradientTransform="translate(91.3437 25.855) rotate(-26.296) scale(11.7485 5.80543)">
<stop stop-color="#BD2719" stop-opacity="0.25"/>
<stop offset="1" stop-color="#BD2719" stop-opacity="0"/>
</radialGradient>
<radialGradient id="paint44_radial_7_790" cx="0" cy="0" r="1" gradientUnits="userSpaceOnUse" gradientTransform="translate(83.2659 19.0938) rotate(-21.6908) scale(4.17659 2.59443)">
<stop stop-color="white"/>
<stop offset="1" stop-color="white" stop-opacity="0"/>
</radialGradient>
<radialGradient id="paint45_radial_7_790" cx="0" cy="0" r="1" gradientUnits="userSpaceOnUse" gradientTransform="translate(91.4254 18.7021) rotate(-40.7634) scale(3.45798 2.14819)">
<stop stop-color="white"/>
<stop offset="1" stop-color="white" stop-opacity="0"/>
</radialGradient>
<linearGradient id="paint46_linear_7_790" x1="90.6226" y1="41.2061" x2="92.6156" y2="14.3346" gradientUnits="userSpaceOnUse">
<stop stop-color="#860805"/>
<stop offset="1" stop-color="#BD2719" stop-opacity="0"/>
</linearGradient>
<radialGradient id="paint47_radial_7_790" cx="0" cy="0" r="1" gradientUnits="userSpaceOnUse" gradientTransform="translate(148.32 16.7877) scale(22.0594)">
<stop stop-color="#FFE030"/>
<stop offset="1" stop-color="#FFB92E"/>
</radialGradient>
<radialGradient id="paint48_radial_7_790" cx="0" cy="0" r="1" gradientUnits="userSpaceOnUse" gradientTransform="translate(148.32 16.7877) scale(17.3551 17.3551)">
<stop stop-color="#FFEA5F"/>
<stop offset="1" stop-color="#FFBC47" stop-opacity="0"/>
</radialGradient>
<radialGradient id="paint49_radial_7_790" cx="0" cy="0" r="1" gradientUnits="userSpaceOnUse" gradientTransform="translate(141.956 28.7474) rotate(-2.7703) scale(7.6914 6.0858)">
<stop stop-color="#FF4C00"/>
<stop offset="0.1542" stop-color="#FF4C00"/>
<stop offset="0.1795" stop-color="#FF4C00"/>
<stop offset="0.3996" stop-color="#FB4C0B" stop-opacity="0.7318"/>
<stop offset="0.7799" stop-color="#EF4B27" stop-opacity="0.2683"/>
<stop offset="1" stop-color="#E74A3A" stop-opacity="0"/>
</radialGradient>
<radialGradient id="paint50_radial_7_790" cx="0" cy="0" r="1" gradientUnits="userSpaceOnUse" gradientTransform="translate(161.874 28.7474) rotate(-177.23) scale(7.6914 6.0858)">
<stop stop-color="#FF4C00"/>
<stop offset="0.1542" stop-color="#FF4C00"/>
<stop offset="0.1795" stop-color="#FF4C00"/>
<stop offset="0.3996" stop-color="#FB4C0B" stop-opacity="0.7318"/>
<stop offset="0.7799" stop-color="#EF4B27" stop-opacity="0.2683"/>
<stop offset="1" stop-color="#E74A3A" stop-opacity="0"/>
</radialGradient>
<linearGradient id="paint51_linear_7_790" x1="151.918" y1="29.5075" x2="151.918" y2="33.8083" gradientUnits="userSpaceOnUse">
<stop offset="0.00132565" stop-color="#3C2200"/>
<stop offset="1" stop-color="#512D00"/>
</linearGradient>
<linearGradient id="paint52_linear_7_790" x1="143.943" y1="18.2288" x2="144.199" y2="16.3191" gradientUnits="userSpaceOnUse">
<stop offset="0.00132565" stop-color="#3C2200"/>
<stop offset="1" stop-color="#7A4400"/>
</linearGradient>
<linearGradient id="paint53_linear_7_790" x1="159.892" y1="18.229" x2="159.636" y2="16.3194" gradientUnits="userSpaceOnUse">
<stop offset="0.00132565" stop-color="#3C2200"/>
<stop offset="1" stop-color="#7A4400"/>
</linearGradient>
<radialGradient id="paint54_radial_7_790" cx="0" cy="0" r="1" gradientUnits="userSpaceOnUse" gradientTransform="translate(159.198 23.6765) rotate(9.9808) scale(3.28627 1.58559)">
<stop offset="0.00132565" stop-color="#7A4400"/>
<stop offset="1" stop-color="#643800"/>
</radialGradient>
<linearGradient id="paint55_linear_7_790" x1="159.676" y1="21.0311" x2="159.32" y2="23.1242" gradientUnits="userSpaceOnUse">
<stop offset="0.00132565" stop-color="#3C2200"/>
<stop offset="1" stop-color="#512D00"/>
</linearGradient>
<radialGradient id="paint56_radial_7_790" cx="0" cy="0" r="1" gradientUnits="userSpaceOnUse" gradientTransform="translate(144.684 23.6262) rotate(170.019) scale(3.28627 1.58559)">
<stop offset="0.00132565" stop-color="#7A4400"/>
<stop offset="1" stop-color="#643800"/>
</radialGradient>
<linearGradient id="paint57_linear_7_790" x1="144.13" y1="21.0138" x2="144.486" y2="23.1069" gradientUnits="userSpaceOnUse">
<stop offset="0.00132565" stop-color="#3C2200"/>
<stop offset="1" stop-color="#512D00"/>
</linearGradient>
<radialGradient id="paint58_radial_7_790" cx="0" cy="0" r="1" gradientUnits="userSpaceOnUse" gradientTransform="translate(163.474 11.261) rotate(-177.23) scale(7.6914 6.0858)">
<stop stop-color="#FF4C00"/>
<stop offset="0.1542" stop-color="#FF4C00"/>
<stop offset="0.1795" stop-color="#FF4C00"/>
<stop offset="0.3996" stop-color="#FB4C0B" stop-opacity="0.7318"/>
<stop offset="0.7799" stop-color="#EF4B27" stop-opacity="0.2683"/>
<stop offset="1" stop-color="#E74A3A" stop-opacity="0"/>
</radialGradient>
<radialGradient id="paint59_radial_7_790" cx="0" cy="0" r="1" gradientUnits="userSpaceOnUse" gradientTransform="translate(165.874 39.8716) rotate(-177.23) scale(7.6914 6.0858)">
<stop stop-color="#FF4C00"/>
<stop offset="0.1542" stop-color="#FF4C00"/>
<stop offset="0.1795" stop-color="#FF4C00"/>
<stop offset="0.3996" stop-color="#FB4C0B" stop-opacity="0.7318"/>
<stop offset="0.7799" stop-color="#EF4B27" stop-opacity="0.2683"/>
<stop offset="1" stop-color="#E74A3A" stop-opacity="0"/>
</radialGradient>
<radialGradient id="paint60_radial_7_790" cx="0" cy="0" r="1" gradientUnits="userSpaceOnUse" gradientTransform="translate(137.132 35.7192) rotate(-177.23) scale(7.6914 6.0858)">
<stop stop-color="#FF4C00"/>
<stop offset="0.1542" stop-color="#FF4C00"/>
<stop offset="0.1795" stop-color="#FF4C00"/>
<stop offset="0.3996" stop-color="#FB4C0B" stop-opacity="0.7318"/>
<stop offset="0.7799" stop-color="#EF4B27" stop-opacity="0.2683"/>
<stop offset="1" stop-color="#E74A3A" stop-opacity="0"/>
</radialGradient>
<radialGradient id="paint61_radial_7_790" cx="0" cy="0" r="1" gradientUnits="userSpaceOnUse" gradientTransform="translate(159.835 7.68685) rotate(-29.408) scale(9.26292 7.3479)">
<stop offset="0.2479" stop-color="#FF0000"/>
<stop offset="0.8639" stop-color="#C20000"/>
</radialGradient>
<radialGradient id="paint62_radial_7_790" cx="0" cy="0" r="1" gradientUnits="userSpaceOnUse" gradientTransform="translate(160.064 7.11857) rotate(-29.408) scale(7.97508 6.32628)">
<stop offset="0.2479" stop-color="#FF0000"/>
<stop offset="1" stop-color="#C20000"/>
</radialGradient>
<radialGradient id="paint63_radial_7_790" cx="0" cy="0" r="1" gradientUnits="userSpaceOnUse" gradientTransform="translate(159.835 7.68685) rotate(-29.408) scale(9.26292 7.3479)">
<stop stop-color="white" stop-opacity="0.25"/>
<stop offset="1" stop-color="white" stop-opacity="0"/>
</radialGradient>
<radialGradient id="paint64_radial_7_790" cx="0" cy="0" r="1" gradientUnits="userSpaceOnUse" gradientTransform="translate(163.165 10.8299) rotate(-26.296) scale(6.76158 3.34118)">
<stop stop-color="#BD2719" stop-opacity="0.25"/>
<stop offset="1" stop-color="#BD2719" stop-opacity="0"/>
</radialGradient>
<radialGradient id="paint65_radial_7_790" cx="0" cy="0" r="1" gradientUnits="userSpaceOnUse" gradientTransform="translate(158.517 6.93962) rotate(-21.6908) scale(2.40374 1.49317)">
<stop stop-color="white"/>
<stop offset="1" stop-color="white" stop-opacity="0"/>
</radialGradient>
<radialGradient id="paint66_radial_7_790" cx="0" cy="0" r="1" gradientUnits="userSpaceOnUse" gradientTransform="translate(163.207 6.71944) rotate(-40.7635) scale(1.99016 1.23634)">
<stop stop-color="white"/>
<stop offset="1" stop-color="white" stop-opacity="0"/>
</radialGradient>
<linearGradient id="paint67_linear_7_790" x1="162.75" y1="19.6652" x2="163.897" y2="4.19996" gradientUnits="userSpaceOnUse">
<stop stop-color="#860805"/>
<stop offset="1" stop-color="#BD2719" stop-opacity="0"/>
</linearGradient>
<radialGradient id="paint68_radial_7_790" cx="0" cy="0" r="1" gradientUnits="userSpaceOnUse" gradientTransform="translate(136.716 30.8118) rotate(-29.408) scale(9.26292 7.3479)">
<stop offset="0.2479" stop-color="#FF0000"/>
<stop offset="0.8639" stop-color="#C20000"/>
</radialGradient>
<radialGradient id="paint69_radial_7_790" cx="0" cy="0" r="1" gradientUnits="userSpaceOnUse" gradientTransform="translate(136.945 30.2436) rotate(-29.408) scale(7.97508 6.32628)">
<stop offset="0.2479" stop-color="#FF0000"/>
<stop offset="1" stop-color="#C20000"/>
</radialGradient>
<radialGradient id="paint70_radial_7_790" cx="0" cy="0" r="1" gradientUnits="userSpaceOnUse" gradientTransform="translate(136.716 30.8118) rotate(-29.408) scale(9.26292 7.3479)">
<stop stop-color="white" stop-opacity="0.25"/>
<stop offset="1" stop-color="white" stop-opacity="0"/>
</radialGradient>
<radialGradient id="paint71_radial_7_790" cx="0" cy="0" r="1" gradientUnits="userSpaceOnUse" gradientTransform="translate(140.046 33.9564) rotate(-26.296) scale(6.76158 3.34118)">
<stop stop-color="#BD2719" stop-opacity="0.25"/>
<stop offset="1" stop-color="#BD2719" stop-opacity="0"/>
</radialGradient>
<radialGradient id="paint72_radial_7_790" cx="0" cy="0" r="1" gradientUnits="userSpaceOnUse" gradientTransform="translate(135.396 30.0644) rotate(-21.6908) scale(2.40374 1.49317)">
<stop stop-color="white"/>
<stop offset="1" stop-color="white" stop-opacity="0"/>
</radialGradient>
<radialGradient id="paint73_radial_7_790" cx="0" cy="0" r="1" gradientUnits="userSpaceOnUse" gradientTransform="translate(140.087 29.8464) rotate(-40.7633) scale(1.99016 1.23634)">
<stop stop-color="white"/>
<stop offset="1" stop-color="white" stop-opacity="0"/>
</radialGradient>
<linearGradient id="paint74_linear_7_790" x1="139.631" y1="42.7913" x2="140.778" y2="27.3261" gradientUnits="userSpaceOnUse">
<stop stop-color="#860805"/>
<stop offset="1" stop-color="#BD2719" stop-opacity="0"/>
</linearGradient>
<radialGradient id="paint75_radial_7_790" cx="0" cy="0" r="1" gradientUnits="userSpaceOnUse" gradientTransform="translate(163.047 35.4989) rotate(-29.408) scale(9.26292 7.3479)">
<stop offset="0.2479" stop-color="#FF0000"/>
<stop offset="0.8639" stop-color="#C20000"/>
</radialGradient>
<radialGradient id="paint76_radial_7_790" cx="0" cy="0" r="1" gradientUnits="userSpaceOnUse" gradientTransform="translate(163.276 34.9306) rotate(-29.408) scale(7.97508 6.32628)">
<stop offset="0.2479" stop-color="#FF0000"/>
<stop offset="1" stop-color="#C20000"/>
</radialGradient>
<radialGradient id="paint77_radial_7_790" cx="0" cy="0" r="1" gradientUnits="userSpaceOnUse" gradientTransform="translate(163.047 35.4989) rotate(-29.408) scale(9.26292 7.3479)">
<stop stop-color="white" stop-opacity="0.25"/>
<stop offset="1" stop-color="white" stop-opacity="0"/>
</radialGradient>
<radialGradient id="paint78_radial_7_790" cx="0" cy="0" r="1" gradientUnits="userSpaceOnUse" gradientTransform="translate(166.377 38.6418) rotate(-26.296) scale(6.76158 3.34118)">
<stop stop-color="#BD2719" stop-opacity="0.25"/>
<stop offset="1" stop-color="#BD2719" stop-opacity="0"/>
</radialGradient>
<radialGradient id="paint79_radial_7_790" cx="0" cy="0" r="1" gradientUnits="userSpaceOnUse" gradientTransform="translate(161.729 34.7509) rotate(-21.6907) scale(2.40375 1.49317)">
<stop stop-color="white"/>
<stop offset="1" stop-color="white" stop-opacity="0"/>
</radialGradient>
<radialGradient id="paint80_radial_7_790" cx="0" cy="0" r="1" gradientUnits="userSpaceOnUse" gradientTransform="translate(166.418 34.5325) rotate(-40.7635) scale(1.99016 1.23634)">
<stop stop-color="white"/>
<stop offset="1" stop-color="white" stop-opacity="0"/>
</radialGradient>
<linearGradient id="paint81_linear_7_790" x1="165.963" y1="47.4769" x2="167.11" y2="32.0116" gradientUnits="userSpaceOnUse">
<stop stop-color="#860805"/>
<stop offset="1" stop-color="#BD2719" stop-opacity="0"/>
</linearGradient>
<radialGradient id="paint82_radial_7_790" cx="0" cy="0" r="1" gradientUnits="userSpaceOnUse" gradientTransform="translate(275.263 16.8747) scale(22.0585)">
<stop stop-color="#FFDF30"/>
<stop offset="1" stop-color="#FFB82E"/>
</radialGradient>
<radialGradient id="paint83_radial_7_790" cx="0" cy="0" r="1" gradientUnits="userSpaceOnUse" gradientTransform="translate(275.263 16.8747) scale(17.3544)">
<stop stop-color="#FFE95F"/>
<stop offset="1" stop-color="#FFBB47" stop-opacity="0"/>
</radialGradient>
<radialGradient id="paint84_radial_7_790" cx="0" cy="0" r="1" gradientUnits="userSpaceOnUse" gradientTransform="translate(272.356 22.4697) rotate(73.8539) scale(2.58353 1.6715)">
<stop offset="0.00132565" stop-color="#7A4400"/>
<stop offset="1" stop-color="#643800"/>
</radialGradient>
<linearGradient id="paint85_linear_7_790" x1="272.89" y1="19.7262" x2="272.89" y2="22.2077" gradientUnits="userSpaceOnUse">
<stop offset="0.00132565" stop-color="#3C2200"/>
<stop offset="1" stop-color="#512D00"/>
</linearGradient>
<radialGradient id="paint86_radial_7_790" cx="0" cy="0" r="1" gradientUnits="userSpaceOnUse" gradientTransform="translate(284.296 22.4701) rotate(73.8539) scale(2.58353 1.6715)">
<stop offset="0.00132565" stop-color="#7A4400"/>
<stop offset="1" stop-color="#643800"/>
</radialGradient>
<linearGradient id="paint87_linear_7_790" x1="284.83" y1="19.7917" x2="284.83" y2="22.2733" gradientUnits="userSpaceOnUse">
<stop offset="0.00132565" stop-color="#3C2200"/>
<stop offset="1" stop-color="#512D00"/>
</linearGradient>
<linearGradient id="paint88_linear_7_790" x1="286.693" y1="16.0335" x2="286.801" y2="14.1098" gradientUnits="userSpaceOnUse">
<stop offset="0.00132565" stop-color="#3C2200"/>
<stop offset="1" stop-color="#7A4400"/>
</linearGradient>
<linearGradient id="paint89_linear_7_790" x1="271.033" y1="16.0339" x2="270.925" y2="14.1103" gradientUnits="userSpaceOnUse">
<stop offset="0.00132565" stop-color="#3C2200"/>
<stop offset="1" stop-color="#7A4400"/>
</linearGradient>
<radialGradient id="paint90_radial_7_790" cx="0" cy="0" r="1" gradientUnits="userSpaceOnUse" gradientTransform="translate(278.607 33.7374) rotate(77.7577) scale(6.57768 3.30149)">
<stop offset="0.00132565" stop-color="#7A4400"/>
<stop offset="1" stop-color="#643800"/>
</radialGradient>
<linearGradient id="paint91_linear_7_790" x1="278.86" y1="25.2937" x2="278.86" y2="34.29" gradientUnits="userSpaceOnUse">
<stop offset="0.00132565" stop-color="#3C2200"/>
<stop offset="1" stop-color="#512D00"/>
</linearGradient>
<radialGradient id="paint92_radial_7_790" cx="0" cy="0" r="1" gradientUnits="userSpaceOnUse" gradientTransform="translate(278.86 30.3603) rotate(0.231607) scale(6.24072 4.39848)">
<stop offset="0.00132565" stop-color="white"/>
<stop offset="0.4312" stop-color="#D3DCDD"/>
<stop offset="0.7963" stop-color="#B4C4C6"/>
<stop offset="1" stop-color="#A8BBBD"/>
</radialGradient>
<radialGradient id="paint93_radial_7_790" cx="0" cy="0" r="1" gradientUnits="userSpaceOnUse" gradientTransform="translate(211.94 16.5921) scale(22.0594 22.0594)">
<stop stop-color="#FFE030"/>
<stop offset="1" stop-color="#FFB92E"/>
</radialGradient>
<radialGradient id="paint94_radial_7_790" cx="0" cy="0" r="1" gradientUnits="userSpaceOnUse" gradientTransform="translate(211.94 16.5921) scale(17.3551)">
<stop stop-color="#FFEA5F"/>
<stop offset="1" stop-color="#FFBC47" stop-opacity="0"/>
</radialGradient>
<linearGradient id="paint95_linear_7_790" x1="224.965" y1="17.6106" x2="225.291" y2="15.7115" gradientUnits="userSpaceOnUse">
<stop offset="0.00132565" stop-color="#3C2200"/>
<stop offset="1" stop-color="#7A4400"/>
</linearGradient>
<radialGradient id="paint96_radial_7_790" cx="0" cy="0" r="1" gradientUnits="userSpaceOnUse" gradientTransform="translate(223.169 21.4955) rotate(5.868) scale(3.44648 1.66282)">
<stop offset="0.00132565" stop-color="#7A4400"/>
<stop offset="1" stop-color="#643800"/>
</radialGradient>
<linearGradient id="paint97_linear_7_790" x1="223.461" y1="18.686" x2="223.246" y2="20.9023" gradientUnits="userSpaceOnUse">
<stop offset="0.00132565" stop-color="#3C2200"/>
<stop offset="1" stop-color="#512D00"/>
</linearGradient>
<radialGradient id="paint98_radial_7_790" cx="0" cy="0" r="1" gradientUnits="userSpaceOnUse" gradientTransform="translate(215.538 32.9274) scale(10.0733)">
<stop offset="0.00132565" stop-color="#7A4400"/>
<stop offset="1" stop-color="#643800"/>
</radialGradient>
<linearGradient id="paint99_linear_7_790" x1="206.091" y1="17.5959" x2="205.766" y2="15.6968" gradientUnits="userSpaceOnUse">
<stop offset="0.00132565" stop-color="#3C2200"/>
<stop offset="1" stop-color="#7A4400"/>
</linearGradient>
<radialGradient id="paint100_radial_7_790" cx="0" cy="0" r="1" gradientUnits="userSpaceOnUse" gradientTransform="translate(207.87 21.4962) rotate(174.132) scale(3.44648 1.66282)">
<stop offset="0.00132565" stop-color="#7A4400"/>
<stop offset="1" stop-color="#643800"/>
</radialGradient>
<linearGradient id="paint101_linear_7_790" x1="207.595" y1="18.6839" x2="207.81" y2="20.9003" gradientUnits="userSpaceOnUse">
<stop offset="0.00132565" stop-color="#3C2200"/>
<stop offset="1" stop-color="#512D00"/>
</linearGradient>
<linearGradient id="paint102_linear_7_790" x1="195.203" y1="23.9912" x2="203.032" y2="31.9911" gradientUnits="userSpaceOnUse">
<stop offset="0.0723628" stop-color="#17BBFE"/>
<stop offset="0.2085" stop-color="#D1F2FF"/>
<stop offset="0.668" stop-color="#80DAFE"/>
<stop offset="1" stop-color="#0099D6"/>
</linearGradient>
<linearGradient id="paint103_linear_7_790" x1="204.93" y1="35.9165" x2="195.101" y2="22.2783" gradientUnits="userSpaceOnUse">
<stop stop-color="#D1F2FF"/>
<stop offset="0.668" stop-color="#80DAFE"/>
<stop offset="1" stop-color="#0099D6"/>
</linearGradient>
<linearGradient id="paint104_linear_7_790" x1="197.224" y1="22.3929" x2="202.138" y2="35.9357" gradientUnits="userSpaceOnUse">
<stop offset="0.566" stop-color="#80DAFE"/>
<stop offset="1" stop-color="#0099D6"/>
</linearGradient>
<linearGradient id="paint105_linear_7_790" x1="197.797" y1="23.0495" x2="201.302" y2="35.0114" gradientUnits="userSpaceOnUse">
<stop offset="0.566" stop-color="#80DAFE"/>
<stop offset="1" stop-color="#0099D6"/>
</linearGradient>
<linearGradient id="paint106_linear_7_790" x1="198.844" y1="31.998" x2="200.444" y2="19.998" gradientUnits="userSpaceOnUse">
<stop stop-color="white"/>
<stop offset="1" stop-color="#80DAFE"/>
</linearGradient>
<radialGradient id="paint107_radial_7_790" cx="0" cy="0" r="1" gradientUnits="userSpaceOnUse" gradientTransform="translate(215.689 36.4692) scale(8.34852 2.52377)">
<stop offset="0.2479" stop-color="#FF0000"/>
<stop offset="1" stop-color="#C20000"/>
</radialGradient>
<linearGradient id="paint108_linear_7_790" x1="235.874" y1="23.9912" x2="228.045" y2="31.9911" gradientUnits="userSpaceOnUse">
<stop offset="0.0723628" stop-color="#17BBFE"/>
<stop offset="0.2085" stop-color="#D1F2FF"/>
<stop offset="0.668" stop-color="#80DAFE"/>
<stop offset="1" stop-color="#0099D6"/>
</linearGradient>
<linearGradient id="paint109_linear_7_790" x1="226.147" y1="35.9165" x2="235.976" y2="22.2783" gradientUnits="userSpaceOnUse">
<stop stop-color="#D1F2FF"/>
<stop offset="0.668" stop-color="#80DAFE"/>
<stop offset="1" stop-color="#0099D6"/>
</linearGradient>
<linearGradient id="paint110_linear_7_790" x1="233.852" y1="22.3929" x2="228.938" y2="35.9357" gradientUnits="userSpaceOnUse">
<stop offset="0.566" stop-color="#80DAFE"/>
<stop offset="1" stop-color="#0099D6"/>
</linearGradient>
<linearGradient id="paint111_linear_7_790" x1="233.28" y1="23.0495" x2="229.775" y2="35.0114" gradientUnits="userSpaceOnUse">
<stop offset="0.566" stop-color="#80DAFE"/>
<stop offset="1" stop-color="#0099D6"/>
</linearGradient>
<linearGradient id="paint112_linear_7_790" x1="232.232" y1="31.998" x2="230.633" y2="19.998" gradientUnits="userSpaceOnUse">
<stop stop-color="white"/>
<stop offset="1" stop-color="#80DAFE"/>
</linearGradient>
<linearGradient id="paint113_linear_7_790" x1="202.558" y1="30.8569" x2="215.538" y2="30.8569" gradientUnits="userSpaceOnUse">
<stop offset="0.00132565" stop-color="#3C2200"/>
<stop offset="1" stop-color="#512D00"/>
</linearGradient>
<linearGradient id="paint114_linear_7_790" x1="228.515" y1="30.8569" x2="215.535" y2="30.8569" gradientUnits="userSpaceOnUse">
<stop offset="0.00132565" stop-color="#3C2200"/>
<stop offset="1" stop-color="#512D00"/>
</linearGradient>
<radialGradient id="paint115_radial_7_790" cx="0" cy="0" r="1" gradientUnits="userSpaceOnUse" gradientTransform="translate(215.538 30.1175) scale(22.0909 22.0909)">
<stop offset="0.00132565" stop-color="white"/>
<stop offset="1" stop-color="#A9BCBE"/>
</radialGradient>
<radialGradient id="paint116_radial_7_790" cx="0" cy="0" r="1" gradientUnits="userSpaceOnUse" gradientTransform="translate(339.263 16.8747) scale(22.0585)">
<stop stop-color="#FFDF30"/>
<stop offset="1" stop-color="#FFB82E"/>
</radialGradient>
<radialGradient id="paint117_radial_7_790" cx="0" cy="0" r="1" gradientUnits="userSpaceOnUse" gradientTransform="translate(339.263 16.8747) scale(17.3544)">
<stop stop-color="#FFE95F"/>
<stop offset="1" stop-color="#FFBB47" stop-opacity="0"/>
</radialGradient>
<radialGradient id="paint118_radial_7_790" cx="0" cy="0" r="1" gradientUnits="userSpaceOnUse" gradientTransform="translate(335.255 33.2377) rotate(72.6921) scale(16.5184 8.88456)">
<stop stop-color="#EA672A" stop-opacity="0.5"/>
<stop offset="0.3462" stop-color="#DB641B" stop-opacity="0.2846"/>
<stop offset="0.8036" stop-color="#C15E00" stop-opacity="0"/>
</radialGradient>
<linearGradient id="paint119_linear_7_790" x1="335.042" y1="15.5228" x2="335.169" y2="17.8308" gradientUnits="userSpaceOnUse">
<stop offset="0.00132565" stop-color="#3C2200"/>
<stop offset="1" stop-color="#7A4400"/>
</linearGradient>
<radialGradient id="paint120_radial_7_790" cx="0" cy="0" r="1" gradientUnits="userSpaceOnUse" gradientTransform="translate(336.356 22.4697) rotate(73.8539) scale(2.58353 1.6715)">
<stop offset="0.00132565" stop-color="#7A4400"/>
<stop offset="1" stop-color="#643800"/>
</radialGradient>
<linearGradient id="paint121_linear_7_790" x1="336.89" y1="19.7262" x2="336.89" y2="22.2077" gradientUnits="userSpaceOnUse">
<stop offset="0.00132565" stop-color="#3C2200"/>
<stop offset="1" stop-color="#512D00"/>
</linearGradient>
<radialGradient id="paint122_radial_7_790" cx="0" cy="0" r="1" gradientUnits="userSpaceOnUse" gradientTransform="translate(348.296 22.4701) rotate(73.8539) scale(2.58353 1.6715)">
<stop offset="0.00132565" stop-color="#7A4400"/>
<stop offset="1" stop-color="#643800"/>
</radialGradient>
<linearGradient id="paint123_linear_7_790" x1="350.685" y1="15.5849" x2="350.558" y2="17.8929" gradientUnits="userSpaceOnUse">
<stop offset="0.00132565" stop-color="#3C2200"/>
<stop offset="1" stop-color="#7A4400"/>
</linearGradient>
<linearGradient id="paint124_linear_7_790" x1="348.83" y1="19.7917" x2="348.83" y2="22.2732" gradientUnits="userSpaceOnUse">
<stop offset="0.00132565" stop-color="#3C2200"/>
<stop offset="1" stop-color="#512D00"/>
</linearGradient>
<linearGradient id="paint125_linear_7_790" x1="342.86" y1="29.6676" x2="342.86" y2="33.8987" gradientUnits="userSpaceOnUse">
<stop offset="0.00132565" stop-color="#3C2200"/>
<stop offset="1" stop-color="#512D00"/>
</linearGradient>
<linearGradient id="paint126_linear_7_790" x1="325.568" y1="28.804" x2="337.897" y2="34.6532" gradientUnits="userSpaceOnUse">
<stop offset="0.0723628" stop-color="#17BAFD"/>
<stop offset="0.2085" stop-color="#D0F1FF"/>
<stop offset="0.668" stop-color="#80D9FD"/>
<stop offset="1" stop-color="#0098D5"/>
</linearGradient>
<linearGradient id="paint127_linear_7_790" x1="341.723" y1="38.3435" x2="324.728" y2="26.8883" gradientUnits="userSpaceOnUse">
<stop stop-color="#D0F1FF"/>
<stop offset="0.668" stop-color="#80D9FD"/>
<stop offset="1" stop-color="#0098D5"/>
</linearGradient>
<linearGradient id="paint128_linear_7_790" x1="327.206" y1="26.1239" x2="338.538" y2="39.5431" gradientUnits="userSpaceOnUse">
<stop offset="0.566" stop-color="#80D9FD"/>
<stop offset="1" stop-color="#0098D5"/>
</linearGradient>
<linearGradient id="paint129_linear_7_790" x1="328.138" y1="26.6334" x2="337.191" y2="38.8385" gradientUnits="userSpaceOnUse">
<stop offset="0.566" stop-color="#80D9FD"/>
<stop offset="1" stop-color="#0098D5"/>
</linearGradient>
<radialGradient id="paint130_radial_7_790" cx="0" cy="0" r="1" gradientUnits="userSpaceOnUse" gradientTransform="translate(331.053 32.3404) rotate(-76.6192) scale(5.74207 3.38086)">
<stop stop-color="white" stop-opacity="0.45"/>
<stop offset="1" stop-color="white" stop-opacity="0"/>
</radialGradient>
<radialGradient id="paint131_radial_7_790" cx="0" cy="0" r="1" gradientUnits="userSpaceOnUse" gradientTransform="translate(402.454 16.7207) rotate(-29.698) scale(18.4532 15.0751)">
<stop stop-color="#FF9214"/>
<stop offset="1" stop-color="#FF4E0D"/>
</radialGradient>
<radialGradient id="paint132_radial_7_790" cx="0" cy="0" r="1" gradientUnits="userSpaceOnUse" gradientTransform="translate(406.223 33.5678) scale(4.00379 2.13282)">
<stop offset="0.00132565" stop-color="#7A4400"/>
<stop offset="1" stop-color="#643800"/>
</radialGradient>
<radialGradient id="paint133_radial_7_790" cx="0" cy="0" r="1" gradientUnits="userSpaceOnUse" gradientTransform="translate(400.071 26.0375) rotate(73.8539) scale(2.58364 1.67158)">
<stop offset="0.00132565" stop-color="#7A4400"/>
<stop offset="1" stop-color="#643800"/>
</radialGradient>
<linearGradient id="paint134_linear_7_790" x1="400.626" y1="24.1215" x2="400.626" y2="26.5049" gradientUnits="userSpaceOnUse">
<stop offset="0.00132565" stop-color="#3C2200"/>
<stop offset="1" stop-color="#512D00"/>
</linearGradient>
<linearGradient id="paint135_linear_7_790" x1="400.538" y1="25.8195" x2="400.538" y2="20.295" gradientUnits="userSpaceOnUse">
<stop offset="0.00132565" stop-color="#3C2200"/>
<stop offset="1" stop-color="#643800"/>
</linearGradient>
<linearGradient id="paint136_linear_7_790" x1="406.223" y1="30.1297" x2="406.223" y2="33.0084" gradientUnits="userSpaceOnUse">
<stop offset="0.00132565" stop-color="#3C2200"/>
<stop offset="1" stop-color="#512D00"/>
</linearGradient>
<radialGradient id="paint137_radial_7_790" cx="0" cy="0" r="1" gradientUnits="userSpaceOnUse" gradientTransform="translate(413.13 25.9945) rotate(106.146) scale(2.58364 1.67157)">
<stop offset="0.00132565" stop-color="#7A4400"/>
<stop offset="1" stop-color="#643800"/>
</radialGradient>
<linearGradient id="paint138_linear_7_790" x1="412.524" y1="24.1215" x2="412.524" y2="26.5049" gradientUnits="userSpaceOnUse">
<stop offset="0.00132565" stop-color="#3C2200"/>
<stop offset="1" stop-color="#512D00"/>
</linearGradient>
<linearGradient id="paint139_linear_7_790" x1="412.613" y1="25.8195" x2="412.613" y2="20.295" gradientUnits="userSpaceOnUse">
<stop offset="0.00132565" stop-color="#3C2200"/>
<stop offset="1" stop-color="#643800"/>
</linearGradient>
</defs>
</svg>
