<svg width="124" height="30" viewBox="0 0 124 30" fill="none" xmlns="http://www.w3.org/2000/svg">
<path d="M11.9469 4C10.169 4.02567 6.34923 4.31534 4.21515 6.26146C2.63004 7.83816 2.07091 10.1418 2.01278 12.9991C1.95466 15.8555 1.879 21.2117 7.07536 22.6637H7.07813L7.07443 24.8784C7.07443 24.8784 7.0403 25.774 7.63725 25.9574C8.35415 26.1792 8.7758 25.499 9.46409 24.7638C9.83961 24.3605 10.3609 23.7701 10.753 23.3155C14.3052 23.6143 17.0381 22.9341 17.35 22.8342C18.066 22.6032 22.1256 22.0862 22.7862 16.7318C23.469 11.2134 22.4541 7.72082 20.6272 6.14779C20.0773 5.64362 17.8537 4.03942 12.9 4.01833C12.9 4.01833 12.5356 3.99542 11.9433 4.00275L11.9469 4ZM12.0005 5.55195C12.5033 5.54828 12.8124 5.56753 12.8124 5.56753C17.0031 5.58586 19.0098 6.83989 19.4758 7.25973C21.0212 8.57517 21.8101 11.7222 21.2343 16.3322V16.334C20.677 20.8056 17.3832 21.0861 16.7761 21.2795C16.5177 21.362 14.117 21.9551 11.099 21.7599C11.099 21.7599 8.85146 24.4549 8.14932 25.1553C8.0386 25.2653 7.90943 25.3083 7.82455 25.2873C7.7046 25.257 7.67139 25.1149 7.67231 24.9077L7.69076 21.2245C3.29711 20.0145 3.55268 15.4567 3.60343 13.0706C3.65325 10.6835 4.10443 8.72734 5.44504 7.4119C7.25343 5.78662 10.4956 5.56203 12.0051 5.55103L12.0005 5.55195ZM12.3511 7.93716C12.2795 7.94075 12.2121 7.97138 12.1626 8.02279C12.113 8.0742 12.0852 8.14248 12.0847 8.21364C12.0842 8.2848 12.1112 8.35345 12.16 8.4055C12.2089 8.45755 12.2759 8.48907 12.3474 8.49359C13.8458 8.50276 15.0655 8.98585 16.0638 9.95295C17.0538 10.9118 17.5585 12.2153 17.5705 13.9259C17.5723 14.0789 17.6997 14.2009 17.8537 14.2009C17.9275 14.1999 17.9979 14.1701 18.0497 14.118C18.1015 14.0658 18.1305 13.9955 18.1305 13.9222C18.1176 12.1035 17.5603 10.6258 16.455 9.55511C15.3571 8.49176 13.9712 7.94816 12.352 7.93716H12.3511ZM8.69737 8.57426C8.50122 8.54727 8.30156 8.58495 8.12902 8.68151L8.1198 8.68334C7.72306 8.90976 7.36691 9.19852 7.06244 9.53769C7.0606 9.54136 7.0569 9.54136 7.05506 9.54503C6.80871 9.84112 6.66755 10.1299 6.63064 10.414C6.62341 10.4564 6.62125 10.4995 6.62418 10.5424C6.62418 10.667 6.64448 10.7899 6.68415 10.9091L6.69615 10.9182C6.82071 11.3582 7.13256 12.0879 7.80794 13.3053C8.19545 14.0093 8.64109 14.6803 9.14209 15.3091C9.39121 15.6245 9.65877 15.9261 9.94479 16.2112L10.0666 16.3322C10.3526 16.6145 10.6571 16.8822 10.9745 17.1297C11.6079 17.6275 12.2826 18.0713 12.9914 18.4561C14.2167 19.1281 14.9529 19.437 15.394 19.5616L15.4032 19.5745C15.5637 19.6266 15.7336 19.6438 15.9014 19.6249C16.1874 19.5919 16.4799 19.4507 16.7761 19.2032C16.7798 19.2032 16.7789 19.2014 16.7835 19.1986C17.1248 18.8961 17.4136 18.5386 17.6415 18.1463L17.6443 18.1371C17.8519 17.7411 17.7827 17.3653 17.4782 17.1104C17.4745 17.1104 16.8342 16.5787 16.5214 16.3496C16.1893 16.1158 15.8479 15.8986 15.4945 15.6987C15.024 15.4375 14.5424 15.6016 14.3431 15.8582L13.9306 16.3752C13.7184 16.6347 13.3245 16.6007 13.3245 16.6007C10.4458 15.8711 9.67538 12.9753 9.67538 12.9753C9.67538 12.9753 9.64124 12.5848 9.9042 12.3739L10.4236 11.9632C10.6792 11.7662 10.8444 11.2876 10.5805 10.8192C10.3801 10.4675 10.1614 10.1263 9.92542 9.79711C9.67764 9.47497 9.4223 9.15862 9.15962 8.84835C9.04392 8.70439 8.87915 8.60754 8.69645 8.57609L8.69737 8.57426ZM12.8401 9.38094C12.7659 9.37875 12.6939 9.40592 12.64 9.45646C12.586 9.507 12.5544 9.57678 12.5522 9.65045C12.55 9.72411 12.5773 9.79563 12.6282 9.84926C12.6791 9.9029 12.7493 9.93426 12.8235 9.93645C13.8937 10.0144 14.6844 10.3636 15.2639 10.9906C15.8451 11.6213 16.1219 12.3877 16.0998 13.3465C16.1038 13.417 16.1345 13.4834 16.1856 13.5324C16.2367 13.5815 16.3046 13.6096 16.3756 13.6111C16.4467 13.6126 16.5157 13.5874 16.5689 13.5406C16.6221 13.4937 16.6556 13.4287 16.6626 13.3584C16.6857 12.2813 16.3544 11.3481 15.6781 10.6139C14.9954 9.87137 14.0386 9.46528 12.8641 9.38002H12.8419L12.8401 9.38094ZM13.2673 10.8751C13.1962 10.8762 13.1282 10.9039 13.0768 10.9527C13.0255 11.0015 12.9946 11.0678 12.9905 11.1382C12.9831 11.2913 13.1012 11.4224 13.2562 11.4316C13.7387 11.4572 14.0635 11.592 14.2831 11.8184C14.5045 12.043 14.6411 12.3867 14.6669 12.8854C14.6764 12.9545 14.7117 13.0176 14.7657 13.0622C14.8197 13.1067 14.8886 13.1295 14.9587 13.126C15.0288 13.1226 15.0951 13.0931 15.1444 13.0435C15.1938 12.9939 15.2225 12.9276 15.2251 12.8579C15.1974 12.2676 15.0267 11.7781 14.69 11.4306C14.3514 11.0841 13.8661 10.9045 13.2876 10.8742H13.2709L13.2673 10.8751Z" fill="white"/>
<path d="M61.6646 6.71682L43.9346 13.5538C42.7246 14.0398 42.7316 14.7148 43.7126 15.0158L48.2646 16.4358L58.7966 9.79082C59.2946 9.48782 59.7496 9.65082 59.3756 9.98282L50.8426 17.6838H50.8406L50.8426 17.6848L50.5286 22.3768C50.9886 22.3768 51.1916 22.1658 51.4496 21.9168L53.6606 19.7668L58.2596 23.1638C59.1076 23.6308 59.7166 23.3908 59.9276 22.3788L62.9466 8.15082C63.2556 6.91182 62.4736 6.35082 61.6646 6.71682Z" fill="white"/>
<path fill-rule="evenodd" clip-rule="evenodd" d="M101.94 7.05219C100.972 6.08181 99.8191 5.31238 98.5496 4.78846C97.28 4.26454 95.9186 3.99656 94.5442 4.00003C88.7812 4.00003 84.0897 8.66811 84.0874 14.4061C84.0874 16.24 84.5684 18.0298 85.4827 19.6086L84 25L89.5429 23.5522C91.0762 24.3828 92.7939 24.8184 94.5396 24.8192H94.5442C100.306 24.8192 104.998 20.1511 105 14.4131C105.004 13.0458 104.736 11.6913 104.21 10.4278C103.685 9.16439 102.914 8.01707 101.94 7.05219ZM94.5442 23.063H94.5407C92.9841 23.0631 91.4561 22.6463 90.1171 21.8563L89.8003 21.6685L86.5111 22.5274L87.3882 19.3362L87.182 19.0093C86.3117 17.6303 85.851 16.0345 85.8531 14.4061C85.8554 9.6372 89.7537 5.75737 94.5477 5.75737C95.6895 5.75485 96.8203 5.97771 97.8749 6.41307C98.9295 6.84843 99.8869 7.48763 100.692 8.29369C101.501 9.0959 102.142 10.0497 102.578 11.1001C103.015 12.1504 103.238 13.2765 103.234 14.4131C103.232 19.182 99.3336 23.063 94.5442 23.063ZM99.3114 16.5842C99.0494 16.4533 97.7659 15.825 97.5259 15.738C97.2872 15.6511 97.1136 15.6082 96.9389 15.8679C96.7642 16.1275 96.2634 16.7129 96.1108 16.8868C95.9582 17.0607 95.8056 17.0815 95.5447 16.9517C95.2838 16.8219 94.4417 16.5472 93.4436 15.6615C92.6667 14.9718 92.1426 14.121 91.99 13.8601C91.8374 13.5993 91.9737 13.4591 92.1053 13.3292C92.2229 13.2133 92.3662 13.0255 92.4967 12.8737C92.6271 12.7218 92.6702 12.614 92.7576 12.4401C92.8449 12.2662 92.8018 12.1144 92.7354 11.9846C92.6702 11.8536 92.1472 10.5738 91.9294 10.0533C91.7186 9.5491 91.5031 9.61633 91.3424 9.60938C91.1759 9.6026 91.0094 9.59951 90.8427 9.6001C90.7103 9.60346 90.5799 9.63403 90.4599 9.68988C90.3398 9.74573 90.2326 9.82567 90.1451 9.92468C89.9051 10.1855 89.2308 10.8138 89.2308 12.0935C89.2308 13.3733 90.1672 14.6101 90.2977 14.784C90.4281 14.9579 92.1402 17.5835 94.7609 18.7102C95.3852 18.978 95.872 19.138 96.2506 19.2585C96.876 19.4567 97.4456 19.4278 97.8963 19.3617C98.3983 19.2875 99.4419 18.7334 99.6597 18.126C99.8775 17.5186 99.8775 16.9981 99.8123 16.8891C99.7471 16.7802 99.5712 16.7141 99.3114 16.5842Z" fill="white"/>
<line x1="123.5" y1="2.18557e-08" x2="123.5" y2="30" stroke="white"/>
</svg>
