<svg width="167" height="30" viewBox="0 0 167 30" fill="none" xmlns="http://www.w3.org/2000/svg">
<g clip-path="url(#clip0_3_806)">
<path fill-rule="evenodd" clip-rule="evenodd" d="M26.9773 10.0561C26.9211 8.78085 26.7149 7.90416 26.4195 7.14449C26.1147 6.33812 25.6459 5.61617 25.0316 5.01602C24.4315 4.40652 23.7048 3.93292 22.9077 3.63294C22.1437 3.33753 21.2715 3.13131 19.9963 3.07509C18.7116 3.0141 18.3037 3 15.0453 3C11.7869 3 11.379 3.0141 10.099 3.07033C8.82382 3.12655 7.94712 3.33295 7.18763 3.62817C6.38108 3.93292 5.65914 4.40176 5.05899 5.01602C4.44949 5.61617 3.97607 6.34288 3.6759 7.13991C3.3805 7.90416 3.17428 8.77609 3.11806 10.0513C3.05707 11.336 3.04297 11.7439 3.04297 15.0023C3.04297 18.2608 3.05707 18.6686 3.11329 19.9486C3.16952 21.2238 3.37592 22.1005 3.67133 22.8602C3.97607 23.6666 4.44949 24.3885 5.05899 24.9887C5.65914 25.5982 6.38584 26.0718 7.18287 26.3718C7.94712 26.6672 8.81906 26.8734 10.0944 26.9296C11.3742 26.986 11.7823 26.9999 15.0407 26.9999C18.2992 26.9999 18.707 26.986 19.987 26.9296C21.2622 26.8734 22.1389 26.6672 22.8984 26.3718C24.5113 25.7482 25.7865 24.4729 26.4101 22.8602C26.7053 22.096 26.9117 21.2238 26.968 19.9486C27.0242 18.6686 27.0383 18.2608 27.0383 15.0023C27.0383 11.7439 27.0335 11.336 26.9773 10.0561ZM24.8161 19.8549C24.7644 21.027 24.5675 21.6599 24.4034 22.0819C24.0002 23.1274 23.1704 23.9572 22.1248 24.3605C21.7028 24.5246 21.0653 24.7215 19.8978 24.7729C18.6319 24.8293 18.2523 24.8433 15.0501 24.8433C11.8478 24.8433 11.4634 24.8293 10.2021 24.7729C9.03003 24.7215 8.3971 24.5246 7.97514 24.3605C7.45484 24.1682 6.98123 23.8634 6.59682 23.4649C6.19831 23.0758 5.89356 22.6069 5.70126 22.0866C5.53717 21.6647 5.34029 21.027 5.28883 19.8596C5.23242 18.5937 5.2185 18.2139 5.2185 15.0117C5.2185 11.8095 5.23242 11.425 5.28883 10.1639C5.34029 8.99183 5.53717 8.3589 5.70126 7.93694C5.89356 7.41645 6.19831 6.94303 6.60158 6.55843C6.99057 6.15992 7.45942 5.85517 7.9799 5.66306C8.40186 5.49896 9.03956 5.30209 10.2069 5.25044C11.4728 5.19422 11.8526 5.18011 15.0546 5.18011C18.2616 5.18011 18.6413 5.19422 19.9026 5.25044C21.0747 5.30209 21.7076 5.49896 22.1296 5.66306C22.6499 5.85517 23.1235 6.15992 23.5079 6.55843C23.9064 6.94761 24.2111 7.41645 24.4034 7.93694C24.5675 8.3589 24.7644 8.99641 24.8161 10.1639C24.8723 11.4298 24.8864 11.8095 24.8864 15.0117C24.8864 18.2139 24.8723 18.589 24.8161 19.8549ZM15.0442 8.83691C11.6405 8.83691 8.87891 11.5983 8.87891 15.0022C8.87891 18.406 11.6405 21.1674 15.0442 21.1674C18.448 21.1674 21.2094 18.406 21.2094 15.0022C21.2094 11.5983 18.448 8.83691 15.0442 8.83691ZM15.0442 19.0014C12.836 19.0014 11.0449 17.2105 11.0449 15.0022C11.0449 12.7939 12.836 11.0029 15.0442 11.0029C17.2525 11.0029 19.0434 12.7939 19.0434 15.0022C19.0434 17.2105 17.2525 19.0014 15.0442 19.0014ZM21.4549 10.0329C22.25 10.0329 22.8944 9.38844 22.8944 8.5936C22.8944 7.79859 22.25 7.1543 21.4549 7.1543C20.6601 7.1543 20.0156 7.79859 20.0156 8.5936C20.0156 9.38844 20.6601 10.0329 21.4549 10.0329Z" fill="white"/>
</g>
<g clip-path="url(#clip1_3_806)">
<path fill-rule="evenodd" clip-rule="evenodd" d="M151.079 14.2801C151.577 14.0295 151.953 13.7505 152.211 13.449C152.671 12.906 152.897 12.1859 152.897 11.2933C152.897 10.4248 152.671 9.68219 152.217 9.05964C151.461 8.04556 150.182 7.52651 148.373 7.49951H141.205V22.1302H147.888C148.641 22.1302 149.339 22.0657 149.984 21.9337C150.629 21.8002 151.187 21.5557 151.659 21.1986C152.079 20.8881 152.431 20.5026 152.71 20.048C153.151 19.361 153.371 18.5824 153.371 17.7153C153.371 16.8753 153.178 16.1597 152.794 15.5717C152.405 14.9836 151.835 14.5531 151.079 14.2801ZM144.162 10.0407H147.39C148.1 10.0407 148.685 10.1172 149.144 10.2687C149.675 10.4893 149.94 10.9378 149.94 11.6219C149.94 12.2354 149.738 12.6644 149.337 12.906C148.934 13.1475 148.41 13.269 147.768 13.269H144.162V10.0407ZM149.267 19.334C148.91 19.5065 148.407 19.592 147.764 19.592H144.162V15.6902H147.813C148.449 15.6947 148.944 15.7787 149.298 15.9362C149.928 16.2212 150.242 16.7433 150.242 17.5068C150.242 18.4069 149.918 19.013 149.267 19.334ZM162.899 8.18164H156.543V10.0028H162.899V8.18164ZM164.23 13.1326C164.683 13.7761 164.974 14.5217 165.106 15.3693C165.184 15.8643 165.214 16.5829 165.202 17.5174H157.21C157.258 18.602 157.636 19.3641 158.36 19.7991C158.798 20.0706 159.323 20.2072 159.942 20.2072C160.593 20.2072 161.124 20.0421 161.532 19.7121C161.757 19.5321 161.954 19.2846 162.123 18.9681H165.052C164.974 19.6086 164.618 20.2612 163.99 20.9242C163.007 21.9743 161.631 22.5008 159.863 22.5008C158.402 22.5008 157.114 22.0583 156 21.1702C154.881 20.2837 154.324 18.839 154.324 16.8394C154.324 14.9642 154.828 13.5256 155.835 12.525C156.844 11.5275 158.15 11.0249 159.756 11.0249C160.713 11.0234 161.573 11.1929 162.336 11.532C163.103 11.8695 163.733 12.4035 164.23 13.1326ZM158.048 13.9757C157.642 14.3882 157.387 14.9462 157.282 15.6498H162.225C162.173 14.8982 161.916 14.3297 161.462 13.9381C161.001 13.5496 160.436 13.3561 159.759 13.3561C159.026 13.3576 158.453 13.5646 158.048 13.9757Z" fill="white"/>
</g>
<g clip-path="url(#clip2_3_806)">
<path fill-rule="evenodd" clip-rule="evenodd" d="M105.205 26.9991C98.588 26.9991 93.2051 21.6158 93.2051 14.9999C93.2051 8.38526 98.588 3.00195 105.205 3.00195C111.822 3.00195 117.205 8.38526 117.205 14.9999C117.205 21.6158 111.822 26.9991 105.205 26.9991ZM114.795 16.5568C114.463 16.4534 111.789 15.6543 108.745 16.1412C110.016 19.6317 110.533 22.4765 110.632 23.0661C112.811 21.5928 114.363 19.2594 114.795 16.5568ZM109 23.956C108.854 23.104 108.291 20.1335 106.927 16.5909C106.906 16.598 106.885 16.6043 106.863 16.6122C101.385 18.5197 99.4183 22.3208 99.2432 22.678C100.889 23.9615 102.96 24.7277 105.205 24.7277C106.55 24.7277 107.833 24.4518 109 23.956ZM97.989 21.5091C98.2087 21.1321 100.875 16.7189 105.884 15.0995C106.011 15.0584 106.138 15.0205 106.266 14.9849C106.023 14.4321 105.758 13.8812 105.479 13.3359C100.629 14.7877 95.9219 14.7277 95.4962 14.7182C95.4935 14.817 95.4919 14.9162 95.4919 15.015C95.4919 17.51 96.4375 19.7874 97.989 21.5091ZM95.697 13.0261C96.1317 13.0316 100.133 13.0482 104.677 11.8429C103.068 8.98156 101.332 6.57616 101.075 6.22609C98.358 7.50715 96.3265 10.0121 95.697 13.0261ZM102.929 5.57367C103.198 5.93286 104.962 8.33471 106.553 11.2593C110.008 9.96321 111.469 7.9996 111.643 7.7514C109.928 6.22847 107.673 5.30417 105.205 5.30417C104.421 5.30417 103.659 5.39741 102.929 5.57367ZM112.723 8.8733C112.519 9.15076 110.891 11.2372 107.3 12.702C107.526 13.166 107.742 13.637 107.945 14.1097C108.015 14.278 108.085 14.4448 108.153 14.6107C111.385 14.2045 114.597 14.8553 114.918 14.9241C114.896 12.6317 114.077 10.5266 112.723 8.8733Z" fill="white"/>
</g>
<g clip-path="url(#clip3_3_806)">
<path fill-rule="evenodd" clip-rule="evenodd" d="M55.376 7.188C55.376 8.3964 54.3964 9.376 53.188 9.376C51.9796 9.376 51 8.3964 51 7.188C51 5.9796 51.9796 5 53.188 5C54.3964 5 55.376 5.9796 55.376 7.188ZM57.4428 23.1729V11.0339H61.0608V12.6939H61.1118C61.6148 11.7409 62.8448 10.7339 64.6798 10.7339C68.5018 10.7339 69.2058 13.2469 69.2058 16.5169V23.1739H65.4348V17.2699C65.4348 15.8629 65.4108 14.0519 63.4738 14.0519C61.5098 14.0519 61.2118 15.5859 61.2118 17.1699V23.1729H57.4428ZM55.0758 11.0339H51.3008V23.1729H55.0758V11.0339Z" fill="white"/>
</g>
<defs>
<clipPath id="clip0_3_806">
<rect width="24" height="24" fill="white" transform="translate(3 3)"/>
</clipPath>
<clipPath id="clip1_3_806">
<rect width="24" height="24" fill="white" transform="translate(141.205 3)"/>
</clipPath>
<clipPath id="clip2_3_806">
<rect width="24" height="24" fill="white" transform="translate(93.2051 3)"/>
</clipPath>
<clipPath id="clip3_3_806">
<rect width="18.205" height="18.174" fill="white" transform="translate(51 5)"/>
</clipPath>
</defs>
</svg>
